<?xml version="1.0" encoding="UTF-8"?>
<svg version="1.1" xmlns="http://www.w3.org/2000/svg" width="505" height="494">
<path d="M0 0 C4.95 0 9.9 0 15 0 C15 0.66 15 1.32 15 2 C16.32 2.33 17.64 2.66 19 3 C19 3.66 19 4.32 19 5 C19.556875 5.268125 20.11375 5.53625 20.6875 5.8125 C23.21225334 7.10899496 25.63714484 8.42476323 28 10 C28 10.66 28 11.32 28 12 C29.65 12.66 31.3 13.32 33 14 C33 14.66 33 15.32 33 16 C33.7425 16.268125 34.485 16.53625 35.25 16.8125 C37.89061949 17.95276751 39.85552844 19.09380306 42 21 C42 21.66 42 22.32 42 23 C42.763125 23.28875 43.52625 23.5775 44.3125 23.875 C47 25 47 25 50 27 C50 27.66 50 28.32 50 29 C50.556875 29.268125 51.11375 29.53625 51.6875 29.8125 C54.21225334 31.10899496 56.63714484 32.42476323 59 34 C59 34.66 59 35.32 59 36 C59.55945313 36.25910156 60.11890625 36.51820313 60.6953125 36.78515625 C68.88518095 41.1021886 76.18062035 47.64526901 83.40380859 53.40600586 C86.54493736 55.94029309 86.54493736 55.94029309 90 58 C90 58.66 90 59.32 90 60 C90.56388428 60.25974609 91.12776855 60.51949219 91.70874023 60.78710938 C94.23375407 62.12373897 96.38404027 63.67968398 98.66015625 65.40625 C99.9740332 66.39818359 99.9740332 66.39818359 101.31445312 67.41015625 C102.67473633 68.44462891 102.67473633 68.44462891 104.0625 69.5 C105.86538616 70.86524288 107.66875094 72.22985402 109.47265625 73.59375 C110.26937744 74.19896484 111.06609863 74.80417969 111.88696289 75.42773438 C113.55497868 76.66886917 115.27007714 77.8467181 117 79 C117 79.66 117 80.32 117 81 C119.31 81.66 121.62 82.32 124 83 C124 82.34 124 81.68 124 81 C125.67881163 79.62367695 127.42191742 78.32558818 129.1875 77.0625 C134.58313364 73.15441711 139.66142045 68.97732837 144.63354492 64.54321289 C147.31280149 62.20575622 149.39334614 60.41615237 153 60 C153 59.34 153 58.68 153 58 C153.66 58 154.32 58 155 58 C155 57.34 155 56.68 155 56 C157.0897227 54.20460444 159.17842082 52.52938558 161.375 50.875 C161.97828125 50.40707031 162.5815625 49.93914062 163.203125 49.45703125 C167.73858874 46 167.73858874 46 170 46 C170.33 45.01 170.66 44.02 171 43 C173.2578125 41.16796875 173.2578125 41.16796875 176.125 39.1875 C179.58447896 36.75371831 182.9026226 34.3124913 186.0625 31.5 C189 29 189 29 191 29 C191 28.34 191 27.68 191 27 C192.6796875 25.4921875 192.6796875 25.4921875 194.875 23.875 C195.95394531 23.06675781 195.95394531 23.06675781 197.0546875 22.2421875 C199 21 199 21 201 21 C201 20.34 201 19.68 201 19 C202.3984375 17.7734375 202.3984375 17.7734375 204.375 16.375 C208.4998046 13.3890795 212.46075666 10.24074874 216.41015625 7.02734375 C217.26480469 6.35832031 218.11945313 5.68929687 219 5 C219.49455688 4.57939301 219.98911377 4.15878601 220.49865723 3.72543335 C224.9172228 0.19828561 228.45909822 -0.69478225 234.12109375 -0.48828125 C234.86585464 -0.48120651 235.61061554 -0.47413177 236.37794495 -0.46684265 C238.73219806 -0.43908734 241.08397895 -0.37639541 243.4375 -0.3125 C245.04358518 -0.28739226 246.64970804 -0.26458344 248.25585938 -0.24414062 C252.17151018 -0.18932414 256.08533755 -0.1031929 260 0 C258.74306767 7.67178293 256.99909683 15.08750852 254.875 22.5625 C254.32849835 24.50067445 253.78411465 26.43944776 253.2421875 28.37890625 C253.0035498 29.2201001 252.76491211 30.06129395 252.51904297 30.92797852 C251.91900241 32.96733557 251.91900241 32.96733557 252 35 C265.36263321 30.13697204 265.36263321 30.13697204 278.05859375 23.79296875 C280 23 280 23 284 24 C284 83.4 284 142.8 284 204 C275.61006039 204.83899396 267.64344868 205.15005507 259.25 205.125 C257.37634766 205.13080078 257.37634766 205.13080078 255.46484375 205.13671875 C243.92972834 205.12512567 232.55899948 204.52540907 221 204 C220.67 160.44 220.34 116.88 220 72 C208.17453088 80.80751437 208.17453088 80.80751437 196.6015625 89.890625 C195 91 195 91 193 91 C193 91.66 193 92.32 193 93 C191.0859375 94.55859375 191.0859375 94.55859375 188.375 96.4375 C183.85973352 99.63870815 179.46307992 102.93791521 175.125 106.375 C173.94535371 107.3060418 172.76566591 108.23703101 171.5859375 109.16796875 C170.99780273 109.63251465 170.40966797 110.09706055 169.80371094 110.57568359 C166.79178842 112.95407503 163.77651039 115.32768928 160.75 117.6875 C160.20102051 118.12175293 159.65204102 118.55600586 159.08642578 119.00341797 C155.22843348 122 155.22843348 122 153 122 C153 122.66 153 123.32 153 124 C151.26451831 125.44526736 149.46024037 126.8087222 147.625 128.125 C146.62726563 128.84945312 145.62953125 129.57390625 144.6015625 130.3203125 C142 132 142 132 140 132 C140 132.66 140 133.32 140 134 C138.5390625 135.2890625 138.5390625 135.2890625 136.625 136.625 C135.99851562 137.07101563 135.37203125 137.51703125 134.7265625 137.9765625 C133 139 133 139 131 139 C131 139.66 131 140.32 131 141 C129.42578125 142.578125 129.42578125 142.578125 127.3125 144.25 C126.62800781 144.81203125 125.94351563 145.3740625 125.23828125 145.953125 C123 147 123 147 120.6484375 146.48828125 C117.27513263 144.59266303 114.32816223 142.35207893 111.3125 139.9375 C107.35070369 136.67441696 107.35070369 136.67441696 103 134 C103 133.34 103 132.68 103 132 C102.27683594 131.7525 101.55367187 131.505 100.80859375 131.25 C97.70507776 129.86874114 95.63144995 128.21665944 93.0625 126 C88.86980519 122.48263858 84.60202999 119.20811958 80.125 116.0625 C74.99390933 112.44917381 69.98208078 108.72873222 65.02246094 104.88208008 C53.95422441 96.30270643 42.67873154 87.99513365 31.38232422 79.71972656 C30.62322754 79.1625293 29.86413086 78.60533203 29.08203125 78.03125 C28.41405518 77.54205078 27.7460791 77.05285156 27.05786133 76.54882812 C24.66678455 74.74920882 22.3368571 72.86948568 20 71 C19.67 114.89 19.34 158.78 19 204 C15.43547783 204.71290443 12.81242438 205.12585266 9.29248047 205.12939453 C8.38738739 205.13254669 7.48229431 205.13569885 6.54977417 205.13894653 C5.09814377 205.13591019 5.09814377 205.13591019 3.6171875 205.1328125 C2.60713654 205.13376923 1.59708557 205.13472595 0.556427 205.13571167 C-1.58022117 205.13639136 -3.71687143 205.13455176 -5.85351562 205.13037109 C-9.09249634 205.12505336 -12.33133627 205.13030591 -15.5703125 205.13671875 C-17.65364614 205.13605728 -19.73697968 205.13477469 -21.8203125 205.1328125 C-22.77592072 205.13483673 -23.73152893 205.13686096 -24.71609497 205.13894653 C-29.45599445 205.12277681 -34.1226596 204.94212689 -38.84274292 204.49191284 C-39.81419691 204.40026793 -40.7856509 204.30862301 -41.78654289 204.21420097 C-42.51698374 204.14351465 -43.24742458 204.07282833 -44 204 C-44.16353828 180.65193008 -44.28696936 157.30395463 -44.3626852 133.95542812 C-44.39877627 123.11421498 -44.44797919 112.27335774 -44.52807617 101.43237305 C-44.59785744 91.98309674 -44.6430102 82.5340782 -44.65861946 73.08455139 C-44.66774366 68.08116851 -44.68917843 63.078523 -44.7401104 58.07537651 C-44.78767636 53.36464798 -44.80227046 48.65495947 -44.79175377 43.9440136 C-44.79367724 42.21662236 -44.80757171 40.48919584 -44.83443832 38.76201248 C-45.02771646 25.69405518 -45.02771646 25.69405518 -42.46016121 21.46177864 C-40.72919933 19.71495726 -39.03195391 18.3707833 -37 17 C-36.32453125 16.23429687 -35.6490625 15.46859375 -34.953125 14.6796875 C-33.05431989 12.66765089 -31.44085524 11.31785188 -29 10 C-26.64233398 10.24584961 -26.64233398 10.24584961 -24.05859375 11.08984375 C-23.09195801 11.38987305 -22.12532227 11.68990234 -21.12939453 11.99902344 C-20.09669434 12.3293457 -19.06399414 12.65966797 -18 13 C-15.82131527 13.61628003 -13.64024935 14.2241963 -11.45703125 14.82421875 C-9.24207968 15.44492789 -7.02723664 16.0660244 -4.8125 16.6875 C-3.09836914 17.16799805 -3.09836914 17.16799805 -1.34960938 17.65820312 C1.43369025 18.43845867 4.21689145 19.21906326 7 20 C6.21086057 17.91570807 5.41859037 15.83260131 4.625 13.75 C4.18414062 12.58984375 3.74328125 11.4296875 3.2890625 10.234375 C2.1126581 7.12457912 2.1126581 7.12457912 0.8359375 4.765625 C0 3 0 3 0 0 Z " fill="#FAFAFA" transform="translate(133,109)"/>
<path d="M0 0 C1.0443219 0.00090637 1.0443219 0.00090637 2.10974121 0.00183105 C33.35999151 0.07507522 64.84861062 5.80940653 93.25 19.1875 C94.64439293 19.79498368 96.04018778 20.3992616 97.4375 21 C111.46689891 27.26579916 124.47218725 34.66895817 137.25 43.1875 C137.25 43.8475 137.25 44.5075 137.25 45.1875 C137.96542969 45.44273438 138.68085938 45.69796875 139.41796875 45.9609375 C142.45246618 47.2751888 144.88188911 48.88246016 147.5625 50.8125 C148.88701172 51.75996094 148.88701172 51.75996094 150.23828125 52.7265625 C151.23408203 53.44972656 151.23408203 53.44972656 152.25 54.1875 C153.52653929 52.48342618 154.7959704 50.77402649 156.0625 49.0625 C156.77019531 48.11117187 157.47789062 47.15984375 158.20703125 46.1796875 C160.19003229 43.27533034 161.75510612 40.36591791 163.25 37.1875 C164.24 37.1875 165.23 37.1875 166.25 37.1875 C167.53556666 40.99481355 168.81721183 44.80342191 170.09521484 48.61328125 C170.53065756 49.90954323 170.96717592 51.20544438 171.40478516 52.50097656 C172.03309327 54.36168041 172.65723259 56.22379031 173.28125 58.0859375 C173.65830078 59.20661621 174.03535156 60.32729492 174.42382812 61.48193359 C175.25 64.1875 175.25 64.1875 175.25 66.1875 C176.19230469 66.13722656 177.13460938 66.08695312 178.10546875 66.03515625 C183.1116267 66.03641693 187.75028342 67.35457482 192.5625 68.625 C193.46806641 68.85509766 194.37363281 69.08519531 195.30664062 69.32226562 C201.92489919 71.0249496 201.92489919 71.0249496 204.25 72.1875 C204.25 72.8475 204.25 73.5075 204.25 74.1875 C202.1602773 75.98289556 200.07157918 77.65811442 197.875 79.3125 C196.97007812 80.01439453 196.97007812 80.01439453 196.046875 80.73046875 C191.51141126 84.1875 191.51141126 84.1875 189.25 84.1875 C189.25 84.8475 189.25 85.5075 189.25 86.1875 C187.75 87.8125 187.75 87.8125 186.25 89.1875 C186.7346875 89.75855469 187.219375 90.32960938 187.71875 90.91796875 C196.67453057 101.75101871 203.37148145 113.98544715 210.25 126.1875 C209.59 126.8475 208.93 127.5075 208.25 128.1875 C207.39728516 126.73730469 207.39728516 126.73730469 206.52734375 125.2578125 C202.41968005 118.31826242 198.26248936 111.53774069 193.46484375 105.04296875 C192.25 103.1875 192.25 103.1875 192.25 101.1875 C191.59 101.1875 190.93 101.1875 190.25 101.1875 C189.59 99.5375 188.93 97.8875 188.25 96.1875 C187.59 96.1875 186.93 96.1875 186.25 96.1875 C186.25 95.5275 186.25 94.8675 186.25 94.1875 C185.59 94.1875 184.93 94.1875 184.25 94.1875 C182.625 92.6875 182.625 92.6875 181.25 91.1875 C181.50462394 96.52790213 181.83582409 101.85706885 182.25 107.1875 C182.32605469 108.18394531 182.40210938 109.18039063 182.48046875 110.20703125 C183.37043866 117.19067747 186.44332915 122.43883142 190.03125 128.390625 C202.26170518 148.88200166 208.96999935 171.87921618 213.25 195.1875 C213.52070312 196.63962891 213.52070312 196.63962891 213.796875 198.12109375 C214.34082723 201.80214976 214.60677427 205.47554744 214.8125 209.1875 C214.8751001 210.31007202 214.8751001 210.31007202 214.93896484 211.45532227 C216.30462512 237.69550906 215.04895976 265.52664159 204.0625 289.8125 C202.36134438 294.78510873 203.10304782 298.38021831 205.328125 303.05078125 C206.94070885 306.78842264 208.01483952 310.71907125 209.1875 314.61328125 C210.09307624 317.48550872 210.09307624 317.48550872 213.25 319.1875 C214.96190668 319.65646759 216.69373416 320.05490444 218.43359375 320.40625 C219.44357422 320.61636719 220.45355469 320.82648438 221.49414062 321.04296875 C223.07485352 321.36201172 223.07485352 321.36201172 224.6875 321.6875 C226.77057059 322.10948483 228.85265367 322.53638132 230.93359375 322.96875 C231.85712646 323.15501953 232.78065918 323.34128906 233.73217773 323.53320312 C236.13449875 324.15748513 238.08560249 324.98854228 240.25 326.1875 C234.60475578 331.98955656 234.60475578 331.98955656 231.25 334.1875 C230.59 334.1875 229.93 334.1875 229.25 334.1875 C229.25 334.8475 229.25 335.5075 229.25 336.1875 C227.640625 337.58984375 227.640625 337.58984375 225.5 339.125 C224.80390625 339.62902344 224.1078125 340.13304687 223.390625 340.65234375 C221.25 342.1875 221.25 342.1875 219.11328125 343.43652344 C216.98485133 345.05531801 216.98485133 345.05531801 216.97949219 347.7277832 C217.08422852 348.72124756 217.18896484 349.71471191 217.296875 350.73828125 C217.4 351.82947266 217.503125 352.92066406 217.609375 354.04492188 C217.73828125 355.18509766 217.8671875 356.32527344 218 357.5 C218.22574586 359.7459148 218.44975935 361.99200453 218.671875 364.23828125 C218.78112305 365.23512939 218.89037109 366.23197754 219.00292969 367.2590332 C219.25524269 370.24964035 219.29124106 373.18777054 219.25 376.1875 C217.08125748 375.68146008 215.25032373 375.18766187 213.25 374.1875 C213.25 373.5275 213.25 372.8675 213.25 372.1875 C212.7034375 372.10242188 212.156875 372.01734375 211.59375 371.9296875 C208.48367938 370.9448318 206.35555204 369.26666403 203.75 367.3125 C202.8115625 366.61382812 201.873125 365.91515625 200.90625 365.1953125 C199.27023375 363.95867668 197.64717986 362.70438882 196.046875 361.421875 C194.30320476 359.95468416 194.30320476 359.95468416 192 360.3125 C184.70061478 362.63503166 177.91865213 365.68539324 171.0078125 368.98046875 C168.25 370.1875 168.25 370.1875 166.25 370.1875 C166.25 370.8475 166.25 371.5075 166.25 372.1875 C166.91 372.1875 167.57 372.1875 168.25 372.1875 C169.65234375 374.234375 169.65234375 374.234375 171.1875 376.9375 C172.67207181 379.53455144 174.08567042 381.97952631 175.94140625 384.328125 C177.25 386.1875 177.25 386.1875 177.25 389.1875 C177.91 389.1875 178.57 389.1875 179.25 389.1875 C179.58 390.8375 179.91 392.4875 180.25 394.1875 C175.53636535 394.41115774 170.82585703 394.57380177 166.1081543 394.68188477 C164.50636985 394.72695767 162.90495191 394.78824152 161.30444336 394.86645508 C148.03705503 395.49823547 148.03705503 395.49823547 143.70361328 392.31982422 C141.29332774 389.26146927 139.67976797 386.08096774 137.99746704 382.58354187 C136.48326675 379.99547389 136.48326675 379.99547389 133.89302063 379.49874878 C132.9645079 379.47064117 132.03599518 379.44253357 131.0793457 379.41357422 C129.49673698 379.35120071 129.49673698 379.35120071 127.88215637 379.28756714 C126.74155258 379.27259186 125.60094879 379.25761658 124.42578125 379.2421875 C123.25041306 379.21843048 122.07504486 379.19467346 120.86405945 379.17019653 C118.37349684 379.13170252 115.88268045 379.10742367 113.3918457 379.09619141 C109.59080585 379.06274904 105.80064559 378.93354917 102.00195312 378.80078125 C90.70028877 378.07030978 90.70028877 378.07030978 80.32073975 381.50549316 C77.15680572 384.94384806 75.74506634 388.78344584 74.25 393.1875 C71.29189524 394.66655238 68.2952845 394.30940903 65.0546875 394.28515625 C64.34724396 394.2837413 63.63980042 394.28232635 62.91091919 394.28086853 C60.64890331 394.275266 58.38698602 394.26271318 56.125 394.25 C54.59244935 394.24498532 53.05989714 394.24042236 51.52734375 394.23632812 C47.76819112 394.22529577 44.00911228 394.20802952 40.25 394.1875 C39.92 393.1975 39.59 392.2075 39.25 391.1875 C39.58 390.5275 39.91 389.8675 40.25 389.1875 C40.91 389.1875 41.57 389.1875 42.25 389.1875 C42.39888672 388.36378906 42.39888672 388.36378906 42.55078125 387.5234375 C43.4272869 384.5952231 44.80820639 382.40408429 46.4375 379.8125 C46.77555664 379.27157715 47.11361328 378.7306543 47.46191406 378.17333984 C49.87156947 374.33145202 52.31658874 370.51187155 54.75390625 366.6875 C55.37048096 365.71989746 55.98705566 364.75229492 56.62231445 363.75537109 C57.85425935 361.82456057 59.08839913 359.89514836 60.32495117 357.96728516 C63.43409047 353.1067925 66.44420879 348.22959015 69.25 343.1875 C69.91 343.1875 70.57 343.1875 71.25 343.1875 C71.37294434 342.59976807 71.49588867 342.01203613 71.62255859 341.40649414 C72.2535719 339.17486769 73.04820316 337.63100089 74.2890625 335.68359375 C74.7015625 335.0302002 75.1140625 334.37680664 75.5390625 333.70361328 C75.97992188 333.0176709 76.42078125 332.33172852 76.875 331.625 C77.32359375 330.91843262 77.7721875 330.21186523 78.234375 329.48388672 C79.14134821 328.05637566 80.05050818 326.63025148 80.96191406 325.20556641 C82.11660234 323.3964964 83.26054015 321.58137824 84.3984375 319.76171875 C88.9911032 312.4463968 88.9911032 312.4463968 91.25 310.1875 C102.00478191 308.13543816 115.72299008 306.60121113 126.25 310.1875 C133.51303181 315.34942019 137.22085306 323.26040592 140.81884766 331.20263672 C142.589887 334.89638067 144.77282565 338.14287335 147.1550293 341.46508789 C148.25 343.1875 148.25 343.1875 148.25 345.1875 C148.91 345.1875 149.57 345.1875 150.25 345.1875 C150.52972656 345.72117187 150.80945313 346.25484375 151.09765625 346.8046875 C154.00521463 352.20844552 157.26383907 357.17437242 160.89453125 362.12109375 C162.25 364.1875 162.25 364.1875 162.25 366.1875 C163.24 366.1875 164.23 366.1875 165.25 366.1875 C165.37246094 365.17945313 165.49492187 364.17140625 165.62109375 363.1328125 C166.42539508 358.08719549 167.91113924 353.36799371 169.41015625 348.4921875 C170.18256193 345.45286098 170.70048519 343.27876045 170.25 340.1875 C168.75635826 337.95234118 168.75635826 337.95234118 166.75 336 C163.25 332.36805556 163.25 332.36805556 163.25 330.1875 C162.59 330.1875 161.93 330.1875 161.25 330.1875 C161.25 329.5275 161.25 328.8675 161.25 328.1875 C160.59 328.1875 159.93 328.1875 159.25 328.1875 C157.48828125 326.32421875 157.48828125 326.32421875 155.5625 323.875 C154.91925781 323.07449219 154.27601563 322.27398437 153.61328125 321.44921875 C153.16339844 320.70285156 152.71351563 319.95648438 152.25 319.1875 C152.58 318.1975 152.91 317.2075 153.25 316.1875 C163.15 316.1875 173.05 316.1875 183.25 316.1875 C183.91 314.5375 184.57 312.8875 185.25 311.1875 C186.2160706 309.28495986 187.19609886 307.38946426 188.1875 305.5 C190.49206348 300.94680905 192.24477701 296.57520593 193.51171875 291.63671875 C194.25 289.1875 194.25 289.1875 195.671875 286.08984375 C197.78517302 281.26602542 198.74137645 276.19848676 199.8125 271.0625 C200.02068359 270.10601562 200.22886719 269.14953125 200.44335938 268.1640625 C201.08016765 265.17765127 201.67475747 262.18636052 202.25 259.1875 C202.44271484 258.19959473 202.63542969 257.21168945 202.83398438 256.19384766 C204.496641 246.73488087 204.6452606 237.38675855 204.625 227.8125 C204.62545319 226.97800323 204.62590637 226.14350647 204.62637329 225.28372192 C204.60453144 211.5557068 203.38239325 198.58229399 200.25 185.1875 C199.96980883 183.84591202 199.69345159 182.50351457 199.421875 181.16015625 C198.21849213 175.46969153 196.57783417 170.52884228 194.25 165.1875 C193.58143669 163.35930477 192.91316377 161.53095228 192.26049805 159.69702148 C187.62474244 146.76587389 181.48031457 134.79456022 174.21948242 123.14624023 C172.21322199 119.91215383 170.53337275 116.7741891 169.25 113.1875 C168.59 113.1875 167.93 113.1875 167.25 113.1875 C167.25 112.5275 167.25 111.8675 167.25 111.1875 C166.5075 110.919375 165.765 110.65125 165 110.375 C162.25 109.1875 162.25 109.1875 160.1875 107.5 C158.39226962 105.96150663 158.39226962 105.96150663 156.51171875 106.46484375 C148.42717069 109.0479895 140.66588655 112.28543269 133.17578125 116.26953125 C131.25 117.1875 131.25 117.1875 129.25 117.1875 C129.89989583 110.56902059 131.48389126 104.67642898 133.52148438 98.3671875 C135.82792389 91.03386666 135.82792389 91.03386666 134.02734375 83.765625 C128.33993597 76.56882025 121.6922452 72.04895357 113.98876953 67.27880859 C111.6938124 65.83841848 109.47498737 64.29566018 107.25 62.75 C103.72091179 60.38611359 100.21385792 58.70557325 96.25 57.1875 C96.25 56.5275 96.25 55.8675 96.25 55.1875 C95.52925293 55.07011475 94.80850586 54.95272949 94.06591797 54.83178711 C91.16741978 54.1686055 88.86381947 53.1789029 86.1953125 51.87890625 C80.30431753 49.13457431 74.32093044 47.06599864 68.125 45.125 C67.03622559 44.78065918 65.94745117 44.43631836 64.82568359 44.08154297 C56.04887778 41.34842052 47.26295673 39.00448329 38.25 37.1875 C37.43031738 37.0217749 36.61063477 36.8560498 35.76611328 36.68530273 C18.16791967 33.28669307 0.23975299 32.65146257 -17.59765625 34.03173828 C-19.42722573 34.16414134 -21.26059759 34.24220622 -23.09375 34.30859375 C-55.68843277 35.72388919 -96.76488116 48.68833919 -122.953125 68.88671875 C-124.75 70.1875 -124.75 70.1875 -126.75 70.1875 C-125.76 68.2075 -125.76 68.2075 -124.75 66.1875 C-124.09 66.1875 -123.43 66.1875 -122.75 66.1875 C-122.75 65.5275 -122.75 64.8675 -122.75 64.1875 C-120.58984375 62.63671875 -120.58984375 62.63671875 -117.6875 60.875 C-114.49237604 58.92461569 -111.3971822 56.94357182 -108.3984375 54.70703125 C-104.63598175 51.98978808 -100.66057464 50.08232879 -96.4375 48.1875 C-94.91871157 47.49340996 -93.40047786 46.79810477 -91.8828125 46.1015625 C-91.16254883 45.77188477 -90.44228516 45.44220703 -89.70019531 45.10253906 C-87.35844366 44.00378027 -85.08815203 42.79151068 -82.8125 41.5625 C-75.49978576 37.86883312 -67.56112797 35.5827759 -59.75 33.1875 C-59.09837891 32.98737305 -58.44675781 32.78724609 -57.77539062 32.58105469 C-47.25418344 29.41582323 -36.60541794 27.7229703 -25.75 26.1875 C-24.70779297 26.01331543 -23.66558594 25.83913086 -22.59179688 25.65966797 C-18.02662736 25.09859541 -13.56318769 25.02534613 -8.96875 25.01953125 C-8.03760376 25.01620285 -7.10645752 25.01287445 -6.14709473 25.00944519 C-4.18042491 25.00440008 -2.21374659 25.00203612 -0.24707031 25.00219727 C2.71304054 25.0000271 5.67276824 24.98189058 8.6328125 24.96289062 C22.44799516 24.92113097 35.68052446 25.88250631 49.1875 29 C49.93346436 29.16959229 50.67942871 29.33918457 51.44799805 29.51391602 C72.14062169 34.35845268 91.31646233 42.68230761 110.25 52.1875 C110.25 52.8475 110.25 53.5075 110.25 54.1875 C110.82105469 54.2803125 111.39210938 54.373125 111.98046875 54.46875 C114.7726281 55.35301389 116.29974394 56.83165974 118.5625 58.6875 C127.22745832 64.4918351 138.18691 63.28771229 148.25 63.1875 C148.25 61.8675 148.25 60.5475 148.25 59.1875 C146.6 58.5275 144.95 57.8675 143.25 57.1875 C143.25 56.5275 143.25 55.8675 143.25 55.1875 C142.26 55.1875 141.27 55.1875 140.25 55.1875 C140.25 54.5275 140.25 53.8675 140.25 53.1875 C139.445625 52.98125 138.64125 52.775 137.8125 52.5625 C134.81826635 51.40683087 132.89145869 50.35995606 130.3125 48.5625 C124.51201256 44.55879655 118.3265041 41.365264 112.07519531 38.13378906 C110.43774205 37.28483657 108.80816924 36.42072487 107.1796875 35.5546875 C99.7447296 31.68526799 92.10951484 28.68575508 84.22314453 25.89013672 C82.41276634 25.24546109 80.61023178 24.57886866 78.80859375 23.91015625 C58.98205788 16.85019524 38.1573459 13.10425245 17.25 11.1875 C16.40308594 11.10628906 15.55617188 11.02507813 14.68359375 10.94140625 C-5.45754646 9.12200056 -26.01131662 10.89219767 -45.75 15.1875 C-46.54647949 15.35620605 -47.34295898 15.52491211 -48.16357422 15.69873047 C-67.19815746 19.78251378 -85.31088609 25.50669663 -102.75 34.1875 C-104.04488059 34.77524722 -105.34180006 35.35852132 -106.640625 35.9375 C-113.50594018 39.05786023 -117.80876305 41.0795107 -120.75 48.1875 C-121.63677662 49.60251085 -122.55657881 50.99710852 -123.5 52.375 C-124.24830078 53.51001953 -124.24830078 53.51001953 -125.01171875 54.66796875 C-126.29157575 56.52304238 -127.6381759 58.33249785 -129.01953125 60.11328125 C-130.15455078 61.63501953 -130.15455078 61.63501953 -131.3125 63.1875 C-132.03566406 64.115625 -132.75882812 65.04375 -133.50390625 66 C-135.37104261 70.77612311 -133.7334322 73.64666064 -131.75 78.1875 C-131.38543701 79.06390137 -131.02087402 79.94030273 -130.64526367 80.84326172 C-129.47725537 83.6160183 -128.27564641 86.37171875 -127.0625 89.125 C-126.24278695 90.98682886 -125.42621144 92.85004331 -124.61328125 94.71484375 C-124.25532471 95.52687256 -123.89736816 96.33890137 -123.52856445 97.17553711 C-122.75 99.1875 -122.75 99.1875 -122.75 101.1875 C-127.18455092 101.37887199 -130.55900207 100.80229139 -134.75 99.375 C-139.59331567 97.8273658 -144.42749756 96.42797677 -149.375 95.25 C-151.09589844 94.83427734 -151.09589844 94.83427734 -152.8515625 94.41015625 C-155.75216723 93.85380769 -155.75216723 93.85380769 -157.5234375 95.62109375 C-157.92820312 96.13800781 -158.33296875 96.65492187 -158.75 97.1875 C-159.41 97.1875 -160.07 97.1875 -160.75 97.1875 C-160.75 97.8475 -160.75 98.5075 -160.75 99.1875 C-162.1484375 100.59765625 -162.1484375 100.59765625 -164.125 102.25 C-168.39487681 105.8577034 -172.47882455 109.63579812 -176.55078125 113.46484375 C-178.75 115.1875 -178.75 115.1875 -181.75 115.1875 C-182.91989449 109.42650697 -183.08204041 103.6684405 -183.3125 97.8125 C-183.35568359 96.79027344 -183.39886719 95.76804687 -183.44335938 94.71484375 C-183.54887792 92.20584712 -183.65099213 89.69676057 -183.75 87.1875 C-189.97481175 94.92274401 -195.90560989 102.63697437 -201.19140625 111.0546875 C-201.70574219 111.75851563 -202.22007812 112.46234375 -202.75 113.1875 C-203.41 113.1875 -204.07 113.1875 -204.75 113.1875 C-204.93369141 114.07695312 -204.93369141 114.07695312 -205.12109375 114.984375 C-205.94064821 117.8553608 -207.55913077 120.0442651 -209.1640625 122.53515625 C-212.75221022 128.53602398 -215.70297974 134.89978001 -218.75 141.1875 C-219.32492188 142.36699219 -219.89984375 143.54648438 -220.4921875 144.76171875 C-223.13187457 150.31031471 -225.44201718 155.72800047 -227.01171875 161.67578125 C-227.64745051 163.8386147 -228.38915904 165.87125391 -229.20703125 167.96875 C-231.93061047 175.14226179 -233.28872833 182.6742749 -234.75 190.1875 C-234.90533203 190.97785645 -235.06066406 191.76821289 -235.22070312 192.58251953 C-243.87758508 238.44338225 -234.89076865 292.97634702 -208.75 332.1875 C-208.75 333.1775 -208.75 334.1675 -208.75 335.1875 C-208.09 335.1875 -207.43 335.1875 -206.75 335.1875 C-204.75 338.1875 -204.75 338.1875 -204.75 341.1875 C-204.09 341.1875 -203.43 341.1875 -202.75 341.1875 C-201.41015625 342.91796875 -201.41015625 342.91796875 -199.8125 345.375 C-196.36337235 350.47592506 -192.53846098 355.10013682 -188.48266602 359.71948242 C-186.14879647 362.40585274 -184.12889927 364.88770637 -182.75 368.1875 C-184.4 369.8375 -186.05 371.4875 -187.75 373.1875 C-194.9964933 367.1104696 -201.86427752 360.62132814 -207.75 353.1875 C-207.75 352.5275 -207.75 351.8675 -207.75 351.1875 C-208.41 351.1875 -209.07 351.1875 -209.75 351.1875 C-212.75 346.80288462 -212.75 346.80288462 -212.75 344.1875 C-213.41 344.1875 -214.07 344.1875 -214.75 344.1875 C-216.2578125 342.32421875 -216.2578125 342.32421875 -217.875 339.875 C-218.41382813 339.07449219 -218.95265625 338.27398437 -219.5078125 337.44921875 C-220.75 335.1875 -220.75 335.1875 -220.75 332.1875 C-221.41 332.1875 -222.07 332.1875 -222.75 332.1875 C-232.65675814 312.82657673 -240.80882817 293.42304778 -245.75 272.1875 C-245.95496094 271.36765625 -246.15992188 270.5478125 -246.37109375 269.703125 C-249.55768227 256.56153515 -250.07330085 243.44419931 -250.01074219 229.99047852 C-250.00002782 227.25709795 -250.01069799 224.52437633 -250.0234375 221.79101562 C-250.03724366 205.36946577 -248.22287936 190.01882957 -243.75 174.1875 C-243.22792969 172.31191406 -243.22792969 172.31191406 -242.6953125 170.3984375 C-235.73395115 146.82582769 -225.14095689 126.12824457 -211.05932617 106.06591797 C-209.93568779 104.45389602 -208.83997925 102.82246887 -207.75 101.1875 C-207.09 101.1875 -206.43 101.1875 -205.75 101.1875 C-205.5025 100.46175781 -205.255 99.73601562 -205 98.98828125 C-203.62572546 95.90904736 -202.00344071 93.87283961 -199.75 91.375 C-199.04875 90.58480469 -198.3475 89.79460937 -197.625 88.98046875 C-195.75 87.1875 -195.75 87.1875 -193.75 87.1875 C-193.481875 86.589375 -193.21375 85.99125 -192.9375 85.375 C-191.75913692 83.20433117 -190.51939019 81.87932788 -188.75 80.1875 C-193.66322705 76.47528401 -198.72338274 73.51228184 -204.1484375 70.60546875 C-207.18069967 68.95274928 -209.99607513 67.27155125 -212.75 65.1875 C-212.75 64.5275 -212.75 63.8675 -212.75 63.1875 C-211.66203125 62.81238281 -210.5740625 62.43726563 -209.453125 62.05078125 C-201.53855204 59.30063418 -193.73801837 56.46631594 -186.0703125 53.0703125 C-183.75 52.1875 -183.75 52.1875 -180.75 52.1875 C-180.63785156 50.95128906 -180.52570313 49.71507812 -180.41015625 48.44140625 C-179.75831038 42.57479338 -178.48324269 36.87780717 -177.1875 31.125 C-176.83655273 29.54041992 -176.83655273 29.54041992 -176.47851562 27.92382812 C-175.90653688 25.34408727 -175.33028727 22.76538225 -174.75 20.1875 C-173.76 20.1875 -172.77 20.1875 -171.75 20.1875 C-170.76 22.1675 -170.76 22.1675 -169.75 24.1875 C-169.09 24.1875 -168.43 24.1875 -167.75 24.1875 C-166.0234375 26.0859375 -166.0234375 26.0859375 -164.125 28.5625 C-163.49335938 29.37460937 -162.86171875 30.18671875 -162.2109375 31.0234375 C-160.75 33.1875 -160.75 33.1875 -160.75 35.1875 C-160.09 35.1875 -159.43 35.1875 -158.75 35.1875 C-157.7521359 36.67658354 -156.78598058 38.18699155 -155.8359375 39.70703125 C-153.17597661 43.24909883 -153.17597661 43.24909883 -149.16894531 44.77490234 C-146.17054858 44.69435616 -143.33553008 44.35503427 -140.375 43.875 C-139.385 43.75576172 -138.395 43.63652344 -137.375 43.51367188 C-131.41405524 42.7547917 -125.59402394 41.57288456 -119.75 40.1875 C-128.165 40.6825 -128.165 40.6825 -136.75 41.1875 C-131.71283335 31.11316669 -114.73372142 26.35011052 -104.74169922 22.05859375 C-102.17227514 20.93482504 -99.65187227 19.71593853 -97.125 18.5 C-90.88273745 15.638963 -84.33878759 13.76188886 -77.76928711 11.81323242 C-75.65826729 11.15907406 -73.58136982 10.43099727 -71.49609375 9.69921875 C-66.07270557 7.87749872 -60.5395429 6.75252228 -54.9375 5.625 C-53.93396484 5.41681641 -52.93042969 5.20863281 -51.89648438 4.99414062 C-48.85145193 4.37027078 -45.80279649 3.77214072 -42.75 3.1875 C-41.7904541 3.00203613 -40.8309082 2.81657227 -39.84228516 2.62548828 C-26.66815531 0.24122001 -13.35803539 -0.02170209 0 0 Z M-170.75 31.1875 C-172.03557114 34.6248855 -172.91637408 37.91461857 -173.43359375 41.53515625 C-175.29944658 53.82760617 -175.29944658 53.82760617 -179 57.296875 C-181.88920274 58.59029716 -184.68424549 59.40218357 -187.75 60.1875 C-190.15418172 61.10337875 -192.55022366 62.04091955 -194.9375 63 C-196.87371865 63.73256235 -198.81075703 64.46298156 -200.75 65.1875 C-191.06892204 73.28445689 -191.06892204 73.28445689 -179.75 77.1875 C-178.79925551 80.03973347 -178.58799959 81.99915084 -178.50390625 84.96875 C-178.45459961 86.35513672 -178.45459961 86.35513672 -178.40429688 87.76953125 C-178.3431027 89.7147249 -178.28581034 91.66004522 -178.23242188 93.60546875 C-178.18118164 94.99185547 -178.18118164 94.99185547 -178.12890625 96.40625 C-178.1038501 97.25123047 -178.07879395 98.09621094 -178.05297852 98.96679688 C-177.87597222 101.47210018 -177.87597222 101.47210018 -175.75 104.1875 C-173.91086305 102.7364926 -172.0788247 101.27648341 -170.25 99.8125 C-169.2290625 99.00039062 -168.208125 98.18828125 -167.15625 97.3515625 C-166.3621875 96.63742188 -165.568125 95.92328125 -164.75 95.1875 C-164.75 94.5275 -164.75 93.8675 -164.75 93.1875 C-164.151875 92.919375 -163.55375 92.65125 -162.9375 92.375 C-160.68931989 91.35386235 -160.68931989 91.35386235 -159.5 89.5 C-157.75 88.1875 -157.75 88.1875 -154.234375 88.4453125 C-149.45470557 89.13512284 -144.88039996 90.40386581 -140.25 91.75 C-139.01636719 92.10094727 -139.01636719 92.10094727 -137.7578125 92.45898438 C-135.75370942 93.02992072 -133.75163409 93.60796705 -131.75 94.1875 C-132.83579386 90.71516429 -134.07015669 87.36042902 -135.51171875 84.0234375 C-135.82560547 83.29382813 -136.13949219 82.56421875 -136.46289062 81.8125 C-137.11733809 80.30163131 -137.77891068 78.7938307 -138.44726562 77.2890625 C-138.75728516 76.56203125 -139.06730469 75.835 -139.38671875 75.0859375 C-139.67248779 74.43286621 -139.95825684 73.77979492 -140.25268555 73.10693359 C-141.08543803 69.89284424 -140.06288402 67.76079066 -138.515625 64.92578125 C-138.01546875 64.12527344 -137.5153125 63.32476562 -137 62.5 C-134.10930698 57.80087825 -131.39316548 53.0294049 -128.75 48.1875 C-132.63160661 48.11940164 -136.22044588 48.1075673 -140.0625 48.6875 C-150.43012668 50.09327989 -150.43012668 50.09327989 -154.75 49.1875 C-158.2841085 46.46561643 -160.76174469 43.16401061 -162.75 39.1875 C-163.41 39.1875 -164.07 39.1875 -164.75 39.1875 C-164.9975 38.424375 -165.245 37.66125 -165.5 36.875 C-166.85995558 33.9510955 -168.06585826 32.88745644 -170.75 31.1875 Z M162.25 49.1875 C160.84362039 50.83051434 160.84362039 50.83051434 159.5625 52.9375 C159.10488281 53.63359375 158.64726562 54.3296875 158.17578125 55.046875 C157.06446005 57.13728081 157.06446005 57.13728081 157.4765625 59.375 C158.12688119 61.38697094 158.12688119 61.38697094 160.3125 62.4375 C160.951875 62.685 161.59125 62.9325 162.25 63.1875 C162.25 63.8475 162.25 64.5075 162.25 65.1875 C163.66647671 66.6198278 163.66647671 66.6198278 165.5625 68.125 C171.11146342 72.82717367 176.15375433 78.00694144 181.25 83.1875 C184.47501779 82.01176949 186.98771132 80.83789465 189.5625 78.5625 C190.449375 77.77875 191.33625 76.995 192.25 76.1875 C191.46669571 74.03827862 191.46669571 74.03827862 189.53173828 73.59326172 C188.80196777 73.43615723 188.07219727 73.27905273 187.3203125 73.1171875 C186.52496094 72.94316406 185.72960937 72.76914063 184.91015625 72.58984375 C183.65525391 72.32880859 183.65525391 72.32880859 182.375 72.0625 C181.54613281 71.88074219 180.71726562 71.69898437 179.86328125 71.51171875 C176.57225168 70.80459931 173.62800185 70.1875 170.25 70.1875 C170.0025 68.95 169.755 67.7125 169.5 66.4375 C168.20181648 60.53923142 166.23560032 54.88405237 164.25 49.1875 C163.59 49.1875 162.93 49.1875 162.25 49.1875 Z M152.25 65.1875 C151.92 65.8475 151.59 66.5075 151.25 67.1875 C150.08082031 67.24808594 148.91164063 67.30867188 147.70703125 67.37109375 C146.15884386 67.45554034 144.61066732 67.54018625 143.0625 67.625 C142.29357422 67.66431641 141.52464844 67.70363281 140.73242188 67.74414062 C136.81748925 67.96257034 133.07879312 68.27442108 129.25 69.1875 C130.10299768 70.33420384 130.95749867 71.47978934 131.8125 72.625 C132.34746094 73.36621094 132.88242187 74.10742188 133.43359375 74.87109375 C135.18873973 77.22905454 135.18873973 77.22905454 137.34765625 79.16015625 C139.66280191 81.47530191 141.04558137 83.12446414 142.25 86.1875 C141.7944029 90.49848007 140.80723509 94.31287828 139.46875 98.41796875 C138.40604505 101.70486066 137.71713779 104.7742091 137.25 108.1875 C138.41917969 107.69378906 139.58835937 107.20007813 140.79296875 106.69140625 C142.34104473 106.04402902 143.88922746 105.39690701 145.4375 104.75 C146.20642578 104.42451172 146.97535156 104.09902344 147.76757812 103.76367188 C149.91618181 102.86918879 152.07672454 102.01990955 154.25 101.1875 C155.10980469 100.84847656 155.96960938 100.50945312 156.85546875 100.16015625 C160.83426942 100.20559117 163.33478735 102.67513301 166.375 105.0625 C170.97955763 108.70245335 170.97955763 108.70245335 176.25 111.1875 C176.23428955 110.21139771 176.23428955 110.21139771 176.21826172 109.21557617 C176.17670165 106.2687567 176.15067392 103.32199889 176.125 100.375 C176.10824219 99.35083984 176.09148437 98.32667969 176.07421875 97.27148438 C176.06455078 95.79711914 176.06455078 95.79711914 176.0546875 94.29296875 C176.03897705 92.93401489 176.03897705 92.93401489 176.02294922 91.54760742 C176.25 89.1875 176.25 89.1875 178.25 86.1875 C176.88676257 84.1475281 176.88676257 84.1475281 175.25 82.1875 C174.59 82.1875 173.93 82.1875 173.25 82.1875 C173.25 81.5275 173.25 80.8675 173.25 80.1875 C171.53668011 78.37682626 171.53668011 78.37682626 169.375 76.5625 C168.65570313 75.93085937 167.93640625 75.29921875 167.1953125 74.6484375 C165.38893067 72.98732877 165.38893067 72.98732877 163.25 73.1875 C163.25 72.5275 163.25 71.8675 163.25 71.1875 C161.57126935 69.59738654 161.57126935 69.59738654 159.4375 68.0625 C158.72980469 67.52367188 158.02210938 66.98484375 157.29296875 66.4296875 C155.22127005 64.92773387 155.22127005 64.92773387 152.25 65.1875 Z M197.25 303.1875 C195.92634473 304.7673965 195.92634473 304.7673965 194.6484375 306.8359375 C194.15859375 307.59390625 193.66875 308.351875 193.1640625 309.1328125 C192.65617187 309.93460937 192.14828125 310.73640625 191.625 311.5625 C191.109375 312.3565625 190.59375 313.150625 190.0625 313.96875 C187.29237047 317.79215001 187.29237047 317.79215001 186.25 322.1875 C178.66 322.1875 171.07 322.1875 163.25 322.1875 C164.24 323.8375 165.23 325.4875 166.25 327.1875 C166.91 327.1875 167.57 327.1875 168.25 327.1875 C168.25 327.8475 168.25 328.5075 168.25 329.1875 C168.91 329.1875 169.57 329.1875 170.25 329.1875 C171.25 331.1875 172.25 333.1875 173.25 335.1875 C173.91 335.1875 174.57 335.1875 175.25 335.1875 C177.68358636 342.48825908 175.49694288 348.21399 173.125 355.296875 C172.1051399 358.16269648 172.1051399 358.16269648 172.25 361.1875 C178.39618705 359.27311387 183.96092562 356.96118356 189.671875 353.98046875 C192.96691097 352.96699556 194.2347505 353.65491457 197.25 355.1875 C198.24 355.5175 199.23 355.8475 200.25 356.1875 C200.25 356.8475 200.25 357.5075 200.25 358.1875 C203.06509993 360.4648501 203.06509993 360.4648501 206.25 360.1875 C206.25 360.8475 206.25 361.5075 206.25 362.1875 C208.23 363.1775 210.21 364.1675 212.25 365.1875 C212.270625 363.99125 212.29125 362.795 212.3125 361.5625 C212.32667969 360.7478125 212.34085937 359.933125 212.35546875 359.09375 C212.30790731 356.08007876 212.30790731 356.08007876 211.67578125 352.71875 C211.11670048 349.0074053 210.74518029 345.91333749 211.25 342.1875 C213.63876078 339.55251975 215.8991883 338.09137199 219.02734375 336.421875 C219.76082031 336.01453125 220.49429688 335.6071875 221.25 335.1875 C221.25 334.5275 221.25 333.8675 221.25 333.1875 C222.03375 332.919375 222.8175 332.65125 223.625 332.375 C226.53114923 331.33935568 226.53114923 331.33935568 228.25 328.1875 C224.79253984 327.35051505 221.33389511 326.51853324 217.875 325.6875 C216.89015625 325.44902344 215.9053125 325.21054687 214.890625 324.96484375 C213.94960938 324.73925781 213.00859375 324.51367188 212.0390625 324.28125 C211.16975098 324.07177734 210.30043945 323.86230469 209.40478516 323.64648438 C207.29116842 323.1180556 207.29116842 323.1180556 205.25 323.1875 C205.0025 321.929375 204.755 320.67125 204.5 319.375 C203.27166198 313.78517191 201.30312625 308.51964826 199.25 303.1875 C198.59 303.1875 197.93 303.1875 197.25 303.1875 Z M107.25 334.1875 C106.92 335.5075 106.59 336.8275 106.25 338.1875 C105.59 338.1875 104.93 338.1875 104.25 338.1875 C103.89808594 338.84234375 103.54617188 339.4971875 103.18359375 340.171875 C99.77251755 346.47746756 96.23081532 352.68733913 92.5703125 358.8515625 C91.16799046 360.88538552 91.16799046 360.88538552 91.25 362.1875 C102.47 362.1875 113.69 362.1875 125.25 362.1875 C121.47114636 355.25960166 117.73691616 348.57592458 113.4375 342 C112.94830078 341.23880859 112.45910156 340.47761719 111.95507812 339.69335938 C110.15912918 336.90117076 110.15912918 336.90117076 108.25 334.1875 C107.92 334.1875 107.59 334.1875 107.25 334.1875 Z " fill="#DDDDDD" transform="translate(258.75,23.8125)"/>
<path d="M0 0 C0.67016144 -0.00335861 1.34032288 -0.00671722 2.03079224 -0.01017761 C4.26314113 -0.01973002 6.49541509 -0.02163415 8.7277832 -0.02270508 C10.28465302 -0.02591933 11.84152254 -0.02928354 13.39839172 -0.03279114 C16.6762461 -0.0387963 19.9540741 -0.04063008 23.23193359 -0.04003906 C27.39512277 -0.03993841 31.55813762 -0.05348212 35.72128582 -0.07081127 C38.94646448 -0.08204665 42.17160288 -0.08395462 45.39679909 -0.08342934 C46.92870486 -0.08459634 48.46061213 -0.08894463 49.9924984 -0.0967617 C84.02960036 -0.25391537 84.02960036 -0.25391537 96.0012207 11.30151367 C100.64416155 16.68595613 101.59106445 23.24761201 101.59106445 30.14526367 C100.8287759 36.76764549 98.13799377 42.59833435 93.40356445 47.33276367 C87.78809261 50.95162331 82.44212609 53.84793666 75.59106445 53.14526367 C76.41606445 53.92901367 77.24106445 54.71276367 78.09106445 55.52026367 C80.59106445 58.14526367 80.59106445 58.14526367 80.59106445 60.14526367 C81.11829102 60.3644043 81.64551758 60.58354492 82.1887207 60.80932617 C85.48024195 62.63973311 88.19859321 65.06223151 91.02856445 67.52026367 C92.15172469 68.48703451 93.27541491 69.45319001 94.3996582 70.41870117 C94.93574707 70.88244141 95.47183594 71.34618164 96.02416992 71.82397461 C97.47983284 73.05146724 98.98895208 74.21478843 100.5012207 75.37182617 C101.53569336 76.24967773 101.53569336 76.24967773 102.59106445 77.14526367 C102.59106445 77.80526367 102.59106445 78.46526367 102.59106445 79.14526367 C104.57106445 80.13526367 104.57106445 80.13526367 106.59106445 81.14526367 C106.59106445 82.13526367 106.59106445 83.12526367 106.59106445 84.14526367 C101.85886683 84.2445352 97.12728232 84.31692 92.39428711 84.36499023 C90.78610671 84.38503994 89.17799862 84.41228731 87.57006836 84.44702148 C85.25136425 84.49583631 82.9336282 84.51829796 80.61450195 84.53588867 C79.90176117 84.55653381 79.18902039 84.57717896 78.4546814 84.59844971 C71.96486223 84.60133206 68.08366702 81.76034557 63.52075195 77.45385742 C63.01672852 76.98399414 62.51270508 76.51413086 61.9934082 76.0300293 C61.48938477 75.55243164 60.98536133 75.07483398 60.46606445 74.58276367 C56.49704969 70.82830207 56.49704969 70.82830207 52.22387695 67.43041992 C51.68504883 67.00631836 51.1462207 66.5822168 50.59106445 66.14526367 C50.59106445 65.48526367 50.59106445 64.82526367 50.59106445 64.14526367 C49.93106445 64.14526367 49.27106445 64.14526367 48.59106445 64.14526367 C48.59106445 63.48526367 48.59106445 62.82526367 48.59106445 62.14526367 C48.0496582 61.90807617 47.50825195 61.67088867 46.95043945 61.42651367 C43.95856308 59.8017861 41.47947046 57.79507598 38.84106445 55.64526367 C37.36379883 54.45416992 37.36379883 54.45416992 35.85668945 53.23901367 C35.1090332 52.54807617 34.36137695 51.85713867 33.59106445 51.14526367 C33.59106445 50.48526367 33.59106445 49.82526367 33.59106445 49.14526367 C32.97231445 48.87713867 32.35356445 48.60901367 31.71606445 48.33276367 C29.59106445 47.14526367 29.59106445 47.14526367 27.59106445 44.14526367 C27.46606445 40.95776367 27.46606445 40.95776367 27.59106445 38.14526367 C28.58960449 38.12544434 29.58814453 38.105625 30.61694336 38.08520508 C34.34082177 38.00882103 38.06432606 37.92015568 41.7878418 37.82788086 C43.39583928 37.78972608 45.00391818 37.75485019 46.61206055 37.72338867 C48.93087762 37.67744307 51.24914065 37.61949986 53.56762695 37.55932617 C54.28036774 37.54777496 54.99310852 37.53622375 55.72744751 37.52432251 C60.75487776 37.37747483 65.11567879 36.63049507 69.46606445 34.02026367 C71.35054939 30.87945545 70.76820481 27.74711754 70.59106445 24.14526367 C69.93106445 24.14526367 69.27106445 24.14526367 68.59106445 24.14526367 C68.59106445 23.48526367 68.59106445 22.82526367 68.59106445 22.14526367 C65.06910477 20.97127711 61.81172702 20.91608599 58.1418457 20.82885742 C57.41039841 20.80807632 56.67895111 20.78729523 55.92533875 20.7658844 C53.58484154 20.70058638 51.24422877 20.64173156 48.90356445 20.58276367 C47.34691287 20.53953684 45.79027202 20.49592125 44.23364258 20.4519043 C42.72388654 20.41053714 41.21412112 20.3695109 39.7043457 20.32885742 C39.01133865 20.3101207 38.3183316 20.29138397 37.60432434 20.27207947 C32.92868454 20.15496108 28.27142285 20.14526367 23.59106445 20.14526367 C23.59106445 40.93526367 23.59106445 61.72526367 23.59106445 83.14526367 C20.84581894 84.51788643 18.62887151 84.27495177 15.55981445 84.27807617 C14.35711914 84.27936523 13.15442383 84.2806543 11.9152832 84.28198242 C10.65329102 84.27811523 9.39129883 84.27424805 8.09106445 84.27026367 C6.82907227 84.27413086 5.56708008 84.27799805 4.2668457 84.28198242 C3.06415039 84.28069336 1.86145508 84.2794043 0.62231445 84.27807617 C-0.48563477 84.27694824 -1.59358398 84.27582031 -2.73510742 84.2746582 C-5.40893555 84.14526367 -5.40893555 84.14526367 -7.40893555 83.14526367 C-7.43205882 72.47106669 -7.44985055 61.79687562 -7.46074772 51.12265873 C-7.46597658 46.16672445 -7.47307428 41.21080726 -7.484375 36.25488281 C-7.49520377 31.47627532 -7.50121236 26.69768429 -7.50381279 21.91906548 C-7.50566706 20.09172748 -7.5092877 18.26439043 -7.5146656 16.4370594 C-7.5218759 13.88673038 -7.52292649 11.33647031 -7.52246094 8.78613281 C-7.52605621 8.02296753 -7.52965149 7.25980225 -7.53335571 6.47351074 C-7.51977656 -0.35560767 -6.64956004 0.02082966 0 0 Z " fill="#EFEFEF" transform="translate(96.408935546875,333.854736328125)"/>
<path d="M0 0 C6.23473585 0.07340862 11.46770995 0.29793166 16.6550293 3.98461914 C21.6969782 9.56238997 25.01501026 15.96778606 28.10131836 22.78051758 C29.87235771 26.47426153 32.05529635 29.72075421 34.4375 33.04296875 C35.5324707 34.76538086 35.5324707 34.76538086 35.5324707 36.76538086 C36.1924707 36.76538086 36.8524707 36.76538086 37.5324707 36.76538086 C37.95206055 37.56588867 37.95206055 37.56588867 38.38012695 38.38256836 C41.28768533 43.78632638 44.54630977 48.75225328 48.17700195 53.69897461 C49.5324707 55.76538086 49.5324707 55.76538086 49.5324707 57.76538086 C50.1924707 57.76538086 50.8524707 57.76538086 51.5324707 57.76538086 C52.0274707 60.73538086 52.0274707 60.73538086 52.5324707 63.76538086 C53.5224707 63.76538086 54.5124707 63.76538086 55.5324707 63.76538086 C57.0324707 65.81225586 57.0324707 65.81225586 58.5324707 68.51538086 C59.99401889 71.11876357 61.37030961 73.55967651 63.2199707 75.90600586 C64.5324707 77.76538086 64.5324707 77.76538086 64.5324707 80.76538086 C65.1924707 80.76538086 65.8524707 80.76538086 66.5324707 80.76538086 C66.8624707 82.41538086 67.1924707 84.06538086 67.5324707 85.76538086 C62.81883605 85.9890386 58.10832773 86.15168263 53.390625 86.25976562 C51.78884055 86.30483853 50.18742262 86.36612238 48.58691406 86.44433594 C35.31952574 87.07611633 35.31952574 87.07611633 30.98608398 83.89770508 C28.57579845 80.83935013 26.96223867 77.6588486 25.27993774 74.16142273 C23.76573746 71.57335474 23.76573746 71.57335474 21.17549133 71.07662964 C20.24697861 71.04852203 19.31846588 71.02041443 18.36181641 70.99145508 C17.30674393 70.94987274 16.25167145 70.90829041 15.16462708 70.865448 C14.02402328 70.85047272 12.88341949 70.83549744 11.70825195 70.82006836 C10.53288376 70.79631134 9.35751556 70.77255432 8.14653015 70.74807739 C5.65596754 70.70958338 3.16515115 70.68530453 0.67431641 70.67407227 C-3.12672345 70.6406299 -6.9168837 70.51143003 -10.71557617 70.37866211 C-22.01724053 69.64819064 -22.01724053 69.64819064 -32.39678955 73.08337402 C-35.56072358 76.52172892 -36.97246295 80.3613267 -38.4675293 84.76538086 C-41.42563405 86.24443324 -44.4222448 85.88728989 -47.6628418 85.86303711 C-48.37028534 85.86162216 -49.07772888 85.86020721 -49.80661011 85.85874939 C-52.06862598 85.85314686 -54.33054328 85.84059404 -56.5925293 85.82788086 C-58.12507995 85.82286618 -59.65763216 85.81830322 -61.19018555 85.81420898 C-64.94933818 85.80317663 -68.70841702 85.78591038 -72.4675293 85.76538086 C-72.7975293 84.77538086 -73.1275293 83.78538086 -73.4675293 82.76538086 C-72.9725293 81.77538086 -72.9725293 81.77538086 -72.4675293 80.76538086 C-71.8075293 80.76538086 -71.1475293 80.76538086 -70.4675293 80.76538086 C-70.36827148 80.21624023 -70.26901367 79.66709961 -70.16674805 79.10131836 C-69.2902424 76.17310396 -67.9093229 73.98196515 -66.2800293 71.39038086 C-65.77294434 70.57899658 -65.77294434 70.57899658 -65.25561523 69.7512207 C-62.84595983 65.90933288 -60.40094055 62.08975241 -57.96362305 58.26538086 C-57.34704834 57.29777832 -56.73047363 56.33017578 -56.09521484 55.33325195 C-54.86326995 53.40244143 -53.62913017 51.47302922 -52.39257812 49.54516602 C-49.28343882 44.68467336 -46.27332051 39.80747101 -43.4675293 34.76538086 C-42.8075293 34.76538086 -42.1475293 34.76538086 -41.4675293 34.76538086 C-41.34458496 34.17764893 -41.22164063 33.58991699 -41.0949707 32.984375 C-40.46395739 30.75274855 -39.66932614 29.20888175 -38.4284668 27.26147461 C-37.8097168 26.28138428 -37.8097168 26.28138428 -37.1784668 25.28149414 C-36.73760742 24.59555176 -36.29674805 23.90960938 -35.8425293 23.20288086 C-35.39393555 22.49631348 -34.9453418 21.78974609 -34.4831543 21.06176758 C-33.57618108 19.63425652 -32.66702111 18.20813234 -31.75561523 16.78344727 C-30.60092695 14.97437726 -29.45698915 13.1592591 -28.3190918 11.33959961 C-20.93928532 -0.41515543 -13.18785786 0.25842231 0 0 Z M-5.4675293 25.76538086 C-5.7975293 27.08538086 -6.1275293 28.40538086 -6.4675293 29.76538086 C-7.1275293 29.76538086 -7.7875293 29.76538086 -8.4675293 29.76538086 C-8.81944336 30.42022461 -9.17135742 31.07506836 -9.53393555 31.74975586 C-12.94501175 38.05534842 -16.48671397 44.26521999 -20.1472168 50.42944336 C-21.54953884 52.46326638 -21.54953884 52.46326638 -21.4675293 53.76538086 C-10.2475293 53.76538086 0.9724707 53.76538086 12.5324707 53.76538086 C8.75361706 46.83748252 5.01938686 40.15380544 0.7199707 33.57788086 C0.23077148 32.81668945 -0.25842773 32.05549805 -0.76245117 31.27124023 C-2.55840012 28.47905162 -2.55840012 28.47905162 -4.4675293 25.76538086 C-4.7975293 25.76538086 -5.1275293 25.76538086 -5.4675293 25.76538086 Z " fill="#F1F1F1" transform="translate(371.467529296875,332.234619140625)"/>
<path d="M0 0 C8.79868238 -0.07021707 17.59726496 -0.12316855 26.39616871 -0.15543652 C30.48402272 -0.17094129 34.5716819 -0.19189288 38.65942383 -0.22631836 C89.16198622 -0.64014934 89.16198622 -0.64014934 102.375 10.625 C107.90561473 16.76838171 109.73568295 25.23302423 109.37890625 33.30078125 C108.34738018 40.64907519 105.49767512 46.56300717 99.9609375 51.5390625 C86.409161 61.63540595 68.10339469 60.39288114 52.125 60.1875 C50.06902028 60.17241827 48.01302979 60.15873607 45.95703125 60.14648438 C40.9708639 60.11635041 35.98622384 60.05758257 31 60 C31 67.59 31 75.18 31 83 C26.5513295 85.22433525 20.44778113 84.18499601 15.5625 84.1875 C14.30888672 84.19974609 13.05527344 84.21199219 11.76367188 84.22460938 C9.96446289 84.22750977 9.96446289 84.22750977 8.12890625 84.23046875 C7.02619385 84.23457764 5.92348145 84.23868652 4.78735352 84.24291992 C2 84 2 84 -1 82 C-1.36749268 80.02470398 -1.36749268 80.02470398 -1.35644531 77.57299805 C-1.35944641 76.65411301 -1.36244751 75.73522797 -1.36553955 74.78849792 C-1.35319275 73.7896608 -1.34084595 72.79082367 -1.328125 71.76171875 C-1.32625183 70.72997025 -1.32437866 69.69822174 -1.32244873 68.63520813 C-1.31571135 66.44191275 -1.30176376 64.24862972 -1.28125 62.05541992 C-1.25048067 58.73930364 -1.24031498 55.42366588 -1.234375 52.10742188 C-1.19544904 41.70210034 -1.1005714 31.35688873 0 21 C4.25414623 20.97534378 8.50825498 20.95716101 12.76245117 20.94506836 C14.21070073 20.94002899 15.65894517 20.93319747 17.10717773 20.92456055 C19.18474588 20.91247753 21.26224697 20.90676789 23.33984375 20.90234375 C24.59144287 20.89710693 25.84304199 20.89187012 27.13256836 20.88647461 C30 21 30 21 31 22 C31.15582303 23.34015221 31.25044142 24.68758903 31.31640625 26.03515625 C31.35830078 26.84404297 31.40019531 27.65292969 31.44335938 28.48632812 C31.48267578 29.33646484 31.52199219 30.18660156 31.5625 31.0625 C31.60568359 31.91650391 31.64886719 32.77050781 31.69335938 33.65039062 C31.79976702 35.76672037 31.90041731 37.88333813 32 40 C36.071006 40.05009283 40.14188832 40.08604089 44.21313477 40.10986328 C45.59304944 40.11981266 46.97294365 40.13337705 48.3527832 40.15087891 C57.85594465 40.2682445 66.91993297 40.02668901 76 37 C76 36.34 76 35.68 76 35 C76.66 35 77.32 35 78 35 C77.93820562 28.63011087 77.93820562 28.63011087 74.5625 23.5 C66.15939794 18.58111099 55.37872936 19.80925807 45.8984375 19.68359375 C44.58082428 19.66281265 43.26321106 19.64203156 41.90567017 19.62062073 C38.43703931 19.56596119 34.96835501 19.51630946 31.49963379 19.46777344 C27.94632323 19.4171431 24.39308833 19.36167597 20.83984375 19.30664062 C13.89329499 19.19974774 6.94667757 19.09815593 0 19 C-0.6182713 15.41746472 -1.1378577 12.0137294 -1.125 8.375 C-1.12757813 7.64023437 -1.13015625 6.90546875 -1.1328125 6.1484375 C-0.99891829 3.98250171 -0.55153681 2.09277274 0 0 Z " fill="#F1F1F0" transform="translate(208,334)"/>
<path d="M0 0 C0.83548442 5.01290649 0.9529989 7.6127945 -1.98046875 11.8828125 C-3.73801555 13.91954601 -5.51029538 15.9224316 -7.31640625 17.9140625 C-10.64093759 21.60694015 -13.11341894 25.74110724 -15.625 30.015625 C-16.07875 30.67046875 -16.5325 31.3253125 -17 32 C-17.66 32 -18.32 32 -19 32 C-19.12246094 32.59296875 -19.24492188 33.1859375 -19.37109375 33.796875 C-20.19064821 36.6678608 -21.80913077 38.8567651 -23.4140625 41.34765625 C-27.00221022 47.34852398 -29.95297974 53.71228001 -33 60 C-33.57492188 61.17949219 -34.14984375 62.35898438 -34.7421875 63.57421875 C-37.38187457 69.12281471 -39.69201718 74.54050047 -41.26171875 80.48828125 C-41.89745051 82.6511147 -42.63915904 84.68375391 -43.45703125 86.78125 C-46.18061047 93.95476179 -47.53872833 101.4867749 -49 109 C-49.15533203 109.79035645 -49.31066406 110.58071289 -49.47070312 111.39501953 C-58.12758508 157.25588225 -49.14076865 211.78884702 -23 251 C-23 251.99 -23 252.98 -23 254 C-22.34 254 -21.68 254 -21 254 C-19 257 -19 257 -19 260 C-18.34 260 -17.68 260 -17 260 C-15.66015625 261.73046875 -15.66015625 261.73046875 -14.0625 264.1875 C-10.61337235 269.28842506 -6.78846098 273.91263682 -2.73266602 278.53198242 C-0.39879647 281.21835274 1.62110073 283.70020637 3 287 C1.35 288.65 -0.3 290.3 -2 292 C-9.2464933 285.9229696 -16.11427752 279.43382814 -22 272 C-22 271.34 -22 270.68 -22 270 C-22.66 270 -23.32 270 -24 270 C-27 265.61538462 -27 265.61538462 -27 263 C-27.66 263 -28.32 263 -29 263 C-30.5078125 261.13671875 -30.5078125 261.13671875 -32.125 258.6875 C-32.66382812 257.88699219 -33.20265625 257.08648437 -33.7578125 256.26171875 C-35 254 -35 254 -35 251 C-35.66 251 -36.32 251 -37 251 C-46.90675814 231.63907673 -55.05882817 212.23554778 -60 191 C-60.20496094 190.18015625 -60.40992188 189.3603125 -60.62109375 188.515625 C-63.80768227 175.37403515 -64.32330085 162.25669931 -64.26074219 148.80297852 C-64.25002782 146.06959795 -64.26069799 143.33687633 -64.2734375 140.60351562 C-64.28724366 124.18196577 -62.47287936 108.83132957 -58 93 C-57.65195312 91.74960938 -57.30390625 90.49921875 -56.9453125 89.2109375 C-49.98395115 65.63832769 -39.39095689 44.94074457 -25.30932617 24.87841797 C-24.18568779 23.26639602 -23.08997925 21.63496887 -22 20 C-21.34 20 -20.68 20 -20 20 C-19.34 18.35 -18.68 16.7 -18 15 C-17.01 15 -16.02 15 -15 15 C-14.4121875 13.9790625 -14.4121875 13.9790625 -13.8125 12.9375 C-11.65294697 9.43753475 -9.06854935 7.26950533 -5.9375 4.6484375 C-3.99267288 3.0423194 -3.99267288 3.0423194 -2.3125 1.2890625 C-1 0 -1 0 0 0 Z " fill="#E5E5E5" transform="translate(73,105)"/>
<path d="M0 0 C1.98 0.99 3.96 1.98 6 3 C6 3.66 6 4.32 6 5 C6.763125 5.28875 7.52625 5.5775 8.3125 5.875 C11 7 11 7 14 9 C14 9.66 14 10.32 14 11 C14.7425 11.268125 15.485 11.53625 16.25 11.8125 C18.89061949 12.95276751 20.85552844 14.09380306 23 16 C23 16.66 23 17.32 23 18 C24.06734375 18.35771484 24.06734375 18.35771484 25.15625 18.72265625 C28.45403474 20.20394143 30.75566668 22.09016995 33.5 24.4375 C36.22269669 26.75867541 38.75163917 28.85500913 41.84375 30.66015625 C42.5553125 31.10230469 43.266875 31.54445312 44 32 C44 32.66 44 33.32 44 34 C44.57234375 34.26554687 45.1446875 34.53109375 45.734375 34.8046875 C48.1076012 36.05676891 50.12213286 37.4936352 52.25 39.125 C52.95640625 39.66382813 53.6628125 40.20265625 54.390625 40.7578125 C54.92171875 41.16773438 55.4528125 41.57765625 56 42 C54.59537834 45.2916613 52.99900091 47.10731199 50.2265625 49.34765625 C49.4840625 49.95287109 48.7415625 50.55808594 47.9765625 51.18164062 C47.20054687 51.80232422 46.42453125 52.42300781 45.625 53.0625 C44.85671875 53.68705078 44.0884375 54.31160156 43.296875 54.95507812 C41.20707198 56.64897556 39.11305758 58.33520617 37 60 C36.29794434 60.56130615 35.59588867 61.1226123 34.87255859 61.70092773 C33 63 33 63 31 63 C31 63.66 31 64.32 31 65 C28.91084525 66.7881238 26.81355455 68.46625581 24.625 70.125 C23.33678475 71.11529403 22.04902725 72.1061838 20.76171875 73.09765625 C20.12282715 73.58766113 19.48393555 74.07766602 18.82568359 74.58251953 C15.5499912 77.1258025 12.36876768 79.7861746 9.18359375 82.44140625 C6.87499148 84.0892279 4.66629723 85.05812699 2 86 C2 86.66 2 87.32 2 88 C1.01 87.67 0.02 87.34 -1 87 C-1.02312269 75.80426756 -1.04091471 64.60854076 -1.05181217 53.41278934 C-1.05704116 48.21471885 -1.0641391 43.01666464 -1.07543945 37.81860352 C-1.08626776 32.80657732 -1.09227671 27.79456682 -1.09487724 22.78252983 C-1.09673159 20.86587718 -1.1003524 18.94922543 -1.10573006 17.03257942 C-1.11293975 14.35771928 -1.11399097 11.68292486 -1.11352539 9.00805664 C-1.11712067 8.2074884 -1.12071594 7.40692017 -1.12442017 6.58209229 C-1.11405216 1.11405216 -1.11405216 1.11405216 0 0 Z " fill="#EEEEEE" transform="translate(171,212)"/>
<path d="M0 0 C0 28.05 0 56.1 0 85 C-0.99 85.33 -1.98 85.66 -3 86 C-3 85.34 -3 84.68 -3 84 C-3.74330566 83.73356689 -4.48661133 83.46713379 -5.25244141 83.19262695 C-7.94509648 82.02383185 -9.73552278 80.80602155 -11.9609375 78.91796875 C-12.68023437 78.31533203 -13.39953125 77.71269531 -14.140625 77.09179688 C-14.87796875 76.46337891 -15.6153125 75.83496094 -16.375 75.1875 C-17.83926812 73.94959842 -19.30539239 72.7138888 -20.7734375 71.48046875 C-21.83062988 70.59174072 -21.83062988 70.59174072 -22.90917969 69.68505859 C-24.89791761 68.08227144 -26.93332263 66.61970202 -29.0390625 65.17578125 C-30.01617187 64.45777344 -30.99328125 63.73976563 -32 63 C-32 62.34 -32 61.68 -32 61 C-32.77730469 60.66935547 -32.77730469 60.66935547 -33.5703125 60.33203125 C-36.96323858 58.47192226 -39.85829975 56.09893873 -42.875 53.6875 C-43.77412109 52.9769043 -43.77412109 52.9769043 -44.69140625 52.25195312 C-48.50964498 49.22469444 -52.26799953 46.13282608 -56 43 C-52.02424715 37.61349614 -47.60477542 34.57044953 -42 31 C-29.54377793 22.67408485 -17.55167398 13.84186428 -6.81811523 3.35205078 C-3.3155968 0 -3.3155968 0 0 0 Z " fill="#EDEDED" transform="translate(335,214)"/>
<path d="M0 0 C11.58844391 6.27932622 23.33481984 11.36802178 35.82617188 15.54296875 C37.17596179 15.9949798 38.52384246 16.45275948 39.86914062 16.91796875 C94.6611225 35.85132374 160.99187063 35.68123945 214.87890625 13.9140625 C216.9375 13.25 216.9375 13.25 220.9375 13.25 C220.9375 12.59 220.9375 11.93 220.9375 11.25 C221.66710937 11.00507813 222.39671875 10.76015625 223.1484375 10.5078125 C231.2972529 7.59033538 238.57002199 3.85148817 246.01904297 -0.53466797 C246.75912598 -0.96408691 247.49920898 -1.39350586 248.26171875 -1.8359375 C248.92260498 -2.2282959 249.58349121 -2.6206543 250.2644043 -3.02490234 C250.81652588 -3.26418457 251.36864746 -3.5034668 251.9375 -3.75 C252.5975 -3.42 253.2575 -3.09 253.9375 -2.75 C250.08468802 1.45442784 246.0518757 4.28371702 241.125 7.125 C240.01209595 7.77190796 240.01209595 7.77190796 238.87670898 8.43188477 C229.21762248 13.93573389 219.04865921 18.77190406 208.24609375 21.546875 C205.75186116 22.25674885 205.75186116 22.25674885 202.7578125 23.6484375 C148.43403595 47.34493088 73.54965499 42.55174102 19.39453125 21.66796875 C8.61712123 17.40593444 -1.86480412 12.75515344 -12.0625 7.25 C-12.66497559 6.93401855 -13.26745117 6.61803711 -13.88818359 6.29248047 C-21.4993419 2.28887576 -21.4993419 2.28887576 -24.0625 0.25 C-24.0625 -1.07 -24.0625 -2.39 -24.0625 -3.75 C-22.35848698 -4.14416671 -20.64894263 -4.51445609 -18.9375 -4.875 C-17.98617187 -5.08382813 -17.03484375 -5.29265625 -16.0546875 -5.5078125 C-9.99031494 -5.9986625 -5.15230393 -2.86029134 0 0 Z " fill="#DEDEDE" transform="translate(138.0625,428.75)"/>
<path d="M0 0 C2 1.375 2 1.375 4 3 C4 3.66 4 4.32 4 5 C4.66 5 5.32 5 6 5 C7.7265625 6.8984375 7.7265625 6.8984375 9.625 9.375 C10.25664063 10.18710937 10.88828125 10.99921875 11.5390625 11.8359375 C13 14 13 14 13 16 C13.66 16 14.32 16 15 16 C16.00246189 17.48854851 16.97240858 18.99907504 17.92578125 20.51953125 C20.56500903 24.04322857 20.56500903 24.04322857 24.53271484 25.58740234 C27.48579591 25.50643161 30.27261525 25.16710753 33.1875 24.6875 C34.71419312 24.49341553 34.71419312 24.49341553 36.27172852 24.29541016 C39.19091572 23.91252771 42.09327792 23.46718913 45 23 C46.39046193 22.79446665 47.78106263 22.58986718 49.171875 22.38671875 C51.79546796 21.9756055 54.39747794 21.52610123 57 21 C55.70583948 24.55737844 54.17221225 27.38920457 51.9375 30.4375 C51.33035156 31.30117187 50.72320312 32.16484375 50.09765625 33.0546875 C48.99296839 34.60577623 47.88461229 36.15459887 46.74560547 37.68066406 C45.42620328 39.45525264 44.14978345 41.25567984 42.875 43.0625 C42.23485962 43.89189087 42.23485962 43.89189087 41.58178711 44.73803711 C39.93699037 47.12524052 38.88613346 49.12095869 39.26586914 52.05249023 C40.03009905 54.45515647 40.96730139 56.69983596 42 59 C42.36512695 59.87519287 42.73025391 60.75038574 43.10644531 61.65209961 C44.27206045 64.4269632 45.47394653 67.18329492 46.6875 69.9375 C47.50721305 71.79932886 48.32378856 73.66254331 49.13671875 75.52734375 C49.49467529 76.33937256 49.85263184 77.15140137 50.22143555 77.98803711 C51 80 51 80 51 82 C46.56544908 82.19137199 43.19099793 81.61479139 39 80.1875 C34.15668433 78.6398658 29.32250244 77.24047677 24.375 76.0625 C22.65410156 75.64677734 22.65410156 75.64677734 20.8984375 75.22265625 C17.99783277 74.66630769 17.99783277 74.66630769 16.2265625 76.43359375 C15.82179687 76.95050781 15.41703125 77.46742187 15 78 C14.34 78 13.68 78 13 78 C13 78.66 13 79.32 13 80 C11.6015625 81.41015625 11.6015625 81.41015625 9.625 83.0625 C5.35512319 86.6702034 1.27117545 90.44829812 -2.80078125 94.27734375 C-5 96 -5 96 -8 96 C-9.16989449 90.23900697 -9.33204041 84.4809405 -9.5625 78.625 C-9.60568359 77.60277344 -9.64886719 76.58054687 -9.69335938 75.52734375 C-9.79887792 73.01834712 -9.90099213 70.50926057 -10 68 C-10.99 68.99 -10.99 68.99 -12 70 C-12.33 67.69 -12.66 65.38 -13 63 C-13.93972656 63.97453125 -13.93972656 63.97453125 -14.8984375 64.96875 C-15.71570313 65.8040625 -16.53296875 66.639375 -17.375 67.5 C-18.18710938 68.3353125 -18.99921875 69.170625 -19.8359375 70.03125 C-22 72 -22 72 -24 72 C-24.0825 72.598125 -24.165 73.19625 -24.25 73.8125 C-25.20455872 76.5966296 -26.57132271 77.43311142 -29 79 C-28.40300869 75.66864109 -27.27987719 73.78724333 -25.0625 71.25 C-24.53785156 70.63640625 -24.01320313 70.0228125 -23.47265625 69.390625 C-22 68 -22 68 -20 68 C-19.731875 67.401875 -19.46375 66.80375 -19.1875 66.1875 C-18.00913692 64.01683117 -16.76939019 62.69182788 -15 61 C-19.91322705 57.28778401 -24.97338274 54.32478184 -30.3984375 51.41796875 C-33.43069967 49.76524928 -36.24607513 48.08405125 -39 46 C-39 45.34 -39 44.68 -39 44 C-37.91203125 43.62488281 -36.8240625 43.24976563 -35.703125 42.86328125 C-27.78855204 40.11313418 -19.98801837 37.27881594 -12.3203125 33.8828125 C-10 33 -10 33 -7 33 C-6.8865625 31.7625 -6.773125 30.525 -6.65625 29.25 C-6.00641153 23.41060645 -4.7711298 17.73097951 -3.5 12 C-3.27441406 10.95199219 -3.04882812 9.90398438 -2.81640625 8.82421875 C-1.12982766 1.12982766 -1.12982766 1.12982766 0 0 Z M3 12 C1.71442886 15.4373855 0.83362592 18.72711857 0.31640625 22.34765625 C-1.54944658 34.64010617 -1.54944658 34.64010617 -5.25 38.109375 C-8.13920274 39.40279716 -10.93424549 40.21468357 -14 41 C-16.40418172 41.91587875 -18.80022366 42.85341955 -21.1875 43.8125 C-23.12371865 44.54506235 -25.06075703 45.27548156 -27 46 C-17.31892204 54.09695689 -17.31892204 54.09695689 -6 58 C-5.04925551 60.85223347 -4.83799959 62.81165084 -4.75390625 65.78125 C-4.70459961 67.16763672 -4.70459961 67.16763672 -4.65429688 68.58203125 C-4.5931027 70.5272249 -4.53581034 72.47254522 -4.48242188 74.41796875 C-4.43118164 75.80435547 -4.43118164 75.80435547 -4.37890625 77.21875 C-4.3538501 78.06373047 -4.32879395 78.90871094 -4.30297852 79.77929688 C-4.12597222 82.28460018 -4.12597222 82.28460018 -2 85 C-0.16086305 83.5489926 1.6711753 82.08898341 3.5 80.625 C4.5209375 79.81289062 5.541875 79.00078125 6.59375 78.1640625 C7.3878125 77.44992188 8.181875 76.73578125 9 76 C9 75.34 9 74.68 9 74 C9.598125 73.731875 10.19625 73.46375 10.8125 73.1875 C13.06068011 72.16636235 13.06068011 72.16636235 14.25 70.3125 C16 69 16 69 19.515625 69.2578125 C24.29529443 69.94762284 28.86960004 71.21636581 33.5 72.5625 C34.73363281 72.91344727 34.73363281 72.91344727 35.9921875 73.27148438 C37.99629058 73.84242072 39.99836591 74.42046705 42 75 C40.91420614 71.52766429 39.67984331 68.17292902 38.23828125 64.8359375 C37.92439453 64.10632813 37.61050781 63.37671875 37.28710938 62.625 C36.63266191 61.11413131 35.97108932 59.6063307 35.30273438 58.1015625 C34.99271484 57.37453125 34.68269531 56.6475 34.36328125 55.8984375 C34.07751221 55.24536621 33.79174316 54.59229492 33.49731445 53.91943359 C32.66456197 50.70534424 33.68711598 48.57329066 35.234375 45.73828125 C35.73453125 44.93777344 36.2346875 44.13726562 36.75 43.3125 C39.64069302 38.61337825 42.35683452 33.8419049 45 29 C41.11839339 28.93190164 37.52955412 28.9200673 33.6875 29.5 C23.31987332 30.90577989 23.31987332 30.90577989 19 30 C15.4658915 27.27811643 12.98825531 23.97651061 11 20 C10.34 20 9.68 20 9 20 C8.7525 19.236875 8.505 18.47375 8.25 17.6875 C6.89004442 14.7635955 5.68414174 13.69995644 3 12 Z " fill="#CCCCCC" transform="translate(85,43)"/>
<path d="M0 0 C0.66 0 1.32 0 2 0 C0.49300333 4.83825247 -1.13884059 9.42129163 -3.3125 14 C-8.47158019 25.21673892 -12.11071699 36.57730903 -14.75 48.625 C-14.94851562 49.52959961 -15.14703125 50.43419922 -15.3515625 51.36621094 C-18.02080962 64.16854171 -19.39257271 76.86005984 -19.375 89.9375 C-19.37468277 90.93372375 -19.37468277 90.93372375 -19.37435913 91.95007324 C-19.31275897 111.55118523 -15.52485932 130.25329455 -10 149 C-9.68289062 150.10472656 -9.36578125 151.20945312 -9.0390625 152.34765625 C-6.96342303 159.08017914 -4.03858764 165.19275856 -0.81640625 171.44921875 C1.01101497 175.02153249 2.74159159 178.61361956 4.4375 182.25 C4.93121094 183.30703125 5.42492187 184.3640625 5.93359375 185.453125 C7 188 7 188 7 190 C-0.55906591 187.48031136 -5.71719216 175.04704434 -9.1875 168.125 C-20.52045084 144.89676571 -27.18839541 119.9741097 -27.18530273 94.05126953 C-27.18746502 92.03265498 -27.20559472 90.01461024 -27.22460938 87.99609375 C-27.24400161 74.77058812 -25.64602847 62.08767614 -22.1875 49.3125 C-21.92179199 48.31919678 -21.65608398 47.32589355 -21.38232422 46.30249023 C-19.44952763 39.25663122 -17.2122814 32.57583367 -14 26 C-13.70335449 25.3807666 -13.40670898 24.7615332 -13.10107422 24.12353516 C-4.17836396 5.53566691 -4.17836396 5.53566691 0 0 Z " fill="#DBDBDB" transform="translate(61,160)"/>
<path d="M0 0 C0.66 0 1.32 0 2 0 C5.9982908 11.24837166 9.60219404 22.23649063 11.4921875 34.04296875 C11.83944634 36.92004026 11.83944634 36.92004026 13 39 C15.12220383 50.04018465 15.31273283 61.04597028 15.26074219 72.25195312 C15.25001439 74.99631839 15.26070499 77.74002934 15.2734375 80.484375 C15.28436837 94.07083223 14.32238324 106.9596974 10.765625 120.140625 C10.27487171 121.97343831 9.82313321 123.8174114 9.421875 125.671875 C6.84893314 137.34907269 2.4912707 149.35981092 -3 160 C-5.31 159.67 -7.62 159.34 -10 159 C-8.53811033 153.6278526 -6.84397798 148.48494929 -4.625 143.375 C0.88714703 130.39745264 4.33627941 116.81689383 7 103 C7.17587646 102.08855225 7.35175293 101.17710449 7.53295898 100.23803711 C8.86837873 92.8413528 9.45391618 85.57000429 9.6875 78.0625 C9.74393677 76.2976123 9.74393677 76.2976123 9.80151367 74.49707031 C10.45076779 50.36509617 7.44681727 27.70333277 0.953125 4.4453125 C0 1 0 1 0 0 Z " fill="#D5D5D5" transform="translate(479,180)"/>
<path d="M0 0 C10.23 0 20.46 0 31 0 C29 4 29 4 26.80078125 5.2109375 C23.56053636 6.12380984 20.5464196 6.42142912 17.1875 6.625 C15.44533203 6.73714844 15.44533203 6.73714844 13.66796875 6.8515625 C12.34732422 6.92503906 12.34732422 6.92503906 11 7 C11.66 8.32 12.32 9.64 13 11 C13.66 11 14.32 11 15 11 C15 11.66 15 12.32 15 13 C15.66 13 16.32 13 17 13 C20 16.46153846 20 16.46153846 20 19 C20.66 19 21.32 19 22 19 C24.51697826 22.77546738 24.32919738 24.50554126 24 29 C23.33692739 31.87444692 22.44538291 34.64478778 21.5 37.4375 C21.14228516 38.53481445 21.14228516 38.53481445 20.77734375 39.65429688 C20.19403828 41.4392116 19.59830065 43.22005557 19 45 C19.62648438 44.69964844 20.25296875 44.39929688 20.8984375 44.08984375 C22.12433594 43.51943359 22.12433594 43.51943359 23.375 42.9375 C24.18710937 42.55464844 24.99921875 42.17179687 25.8359375 41.77734375 C26.55007813 41.52082031 27.26421875 41.26429688 28 41 C28.66 41.33 29.32 41.66 30 42 C28.68 43.32 27.36 44.64 26 46 C27.65 46 29.3 46 31 46 C27.83936913 48.60332156 24.6568348 50.14038576 20.875 51.6875 C19.82054687 52.12449219 18.76609375 52.56148438 17.6796875 53.01171875 C15 54 15 54 13 54 C12.67 54.66 12.34 55.32 12 56 C10.2359458 49.96189447 12.10672198 45.21025957 13.9375 39.4375 C14.51522146 37.58392361 15.08704708 35.7284971 15.65234375 33.87109375 C15.91007568 33.05568115 16.16780762 32.24026855 16.43334961 31.40014648 C17.04323171 28.81688457 17.2041511 26.64482318 17 24 C15.50635826 21.76484118 15.50635826 21.76484118 13.5 19.8125 C10 16.18055556 10 16.18055556 10 14 C9.34 14 8.68 14 8 14 C8 13.34 8 12.68 8 12 C7.34 12 6.68 12 6 12 C4.23828125 10.13671875 4.23828125 10.13671875 2.3125 7.6875 C1.66925781 6.88699219 1.02601563 6.08648437 0.36328125 5.26171875 C-0.08660156 4.51535156 -0.53648437 3.76898438 -1 3 C-0.67 2.01 -0.34 1.02 0 0 Z " fill="#D3D3D3" transform="translate(412,340)"/>
<path d="M0 0 C0.99 0.495 0.99 0.495 2 1 C-1.85281198 5.20442784 -5.8856243 8.03371702 -10.8125 10.875 C-11.55443604 11.30627197 -12.29637207 11.73754395 -13.06079102 12.18188477 C-22.71987752 17.68573389 -32.88884079 22.52190406 -43.69140625 25.296875 C-46.17448945 26.00080721 -46.17448945 26.00080721 -49.1015625 27.38671875 C-53.85234749 29.46634129 -58.81134872 30.72954148 -63.8125 32.0625 C-64.74642578 32.31837891 -65.68035156 32.57425781 -66.64257812 32.83789062 C-84.44235621 37.64296604 -84.44235621 37.64296604 -92 36 C-92 35.01 -92 34.02 -92 33 C-93.32 32.67 -94.64 32.34 -96 32 C-94.84721558 31.81993408 -94.84721558 31.81993408 -93.67114258 31.63623047 C-74.31983709 28.57081988 -55.31720022 25.03946019 -37.05859375 17.6640625 C-35 17 -35 17 -31 17 C-31 16.34 -31 15.68 -31 15 C-30.27039063 14.75507813 -29.54078125 14.51015625 -28.7890625 14.2578125 C-20.6402471 11.34033538 -13.36747801 7.60148817 -5.91845703 3.21533203 C-4.80833252 2.57120361 -4.80833252 2.57120361 -3.67578125 1.9140625 C-3.01489502 1.5217041 -2.35400879 1.1293457 -1.6730957 0.72509766 C-1.12097412 0.48581543 -0.56885254 0.2465332 0 0 Z " fill="#BFBFBF" transform="translate(390,425)"/>
<path d="M0 0 C2.25521255 3.38281883 2.98148992 6.54703652 3.875 10.4375 C6.53907586 21.44242033 9.98098198 31.34738725 15.18359375 41.44921875 C17.01101497 45.02153249 18.74159159 48.61361956 20.4375 52.25 C20.93121094 53.30703125 21.42492187 54.3640625 21.93359375 55.453125 C23 58 23 58 23 60 C15.43932917 57.47977639 10.28493706 45.04705693 6.8125 38.125 C-5.52747314 12.96704341 -5.52747314 12.96704341 -5 4 C-4.34 4 -3.68 4 -3 4 C-3 3.01 -3 2.02 -3 1 C-2.01 0.67 -1.02 0.34 0 0 Z " fill="#DCDCDC" transform="translate(45,290)"/>
<path d="M0 0 C0 0.99 0 1.98 0 3 C-1.61027896 4.40132969 -3.25819544 5.75959722 -4.92330933 7.0953064 C-10.07619437 12.14075313 -11.12067907 16.28232576 -11.29800677 23.20464587 C-11.3080315 25.62945517 -11.26798203 28.05065361 -11.22705078 30.47509766 C-11.23410239 32.23026734 -11.24554909 33.98542399 -11.2610321 35.74053955 C-11.29050039 40.48025312 -11.25886619 45.21778218 -11.21586847 49.95731783 C-11.18137037 54.91947982 -11.20360196 59.88138808 -11.21969604 64.84359741 C-11.24157726 74.22882737 -11.21278402 83.6131833 -11.165573 92.99829233 C-11.11428426 103.68761637 -11.11980805 114.37667805 -11.12999368 125.06609273 C-11.14966904 147.04435333 -11.09835754 169.02197137 -11 191 C-11.33 191 -11.66 191 -12 191 C-12.16353828 167.65193008 -12.28696936 144.30395463 -12.3626852 120.95542812 C-12.39877627 110.11421498 -12.44797919 99.27335774 -12.52807617 88.43237305 C-12.59785744 78.98309674 -12.6430102 69.5340782 -12.65861946 60.08455139 C-12.66774366 55.08116851 -12.68917843 50.078523 -12.7401104 45.07537651 C-12.78767636 40.36464798 -12.80227046 35.65495947 -12.79175377 30.9440136 C-12.79367724 29.21662236 -12.80757171 27.48919584 -12.83443832 25.76201248 C-13.02724952 12.72562589 -13.02724952 12.72562589 -10.49147224 8.46589851 C-8.74906198 6.68747672 -7.08292163 5.35021282 -5 4 C-4.030625 3.195625 -3.06125 2.39125 -2.0625 1.5625 C-1.381875 1.046875 -0.70125 0.53125 0 0 Z " fill="#848484" transform="translate(101,122)"/>
<path d="M0 0 C4.78061442 0.34084819 8.05803564 2.82931691 11.8125 5.5625 C12.40998047 5.98724609 13.00746094 6.41199219 13.62304688 6.84960938 C15.08740533 7.89223259 16.54445735 8.94510452 18 10 C17.34 10.66 16.68 11.32 16 12 C15.34 12 14.68 12 14 12 C14 12.66 14 13.32 14 14 C13.34 14 12.68 14 12 14 C12 13.34 12 12.68 12 12 C11.2575 11.731875 10.515 11.46375 9.75 11.1875 C7 10 7 10 4.9375 8.3125 C3.13314276 6.76834095 3.13314276 6.76834095 1.1953125 7.28515625 C-2.18535312 8.38597797 -5.40344931 9.83759444 -8.66015625 11.2578125 C-11 12 -11 12 -14 11 C-13.67 10.01 -13.34 9.02 -13 8 C-13.99 7.67 -14.98 7.34 -16 7 C-14.92878906 6.57847656 -13.85757812 6.15695313 -12.75390625 5.72265625 C-11.35671698 5.16940681 -9.95958449 4.61601398 -8.5625 4.0625 C-7.50192383 3.64581055 -7.50192383 3.64581055 -6.41992188 3.22070312 C-2.95326119 2.03777966 -2.95326119 2.03777966 0 0 Z " fill="#C2C2C2" transform="translate(414,123)"/>
<path d="M0 0 C0 0.99 0 1.98 0 3 C0.99 3.66 1.98 4.32 3 5 C2.15179688 5.3403125 1.30359375 5.680625 0.4296875 6.03125 C-11.22853031 10.84827186 -22.00659142 16.67383153 -32.328125 23.96875 C-34 25 -34 25 -36 25 C-35.34 23.68 -34.68 22.36 -34 21 C-33.34 21 -32.68 21 -32 21 C-32 20.34 -32 19.68 -32 19 C-29.83984375 17.44921875 -29.83984375 17.44921875 -26.9375 15.6875 C-23.75180733 13.72676276 -20.64283647 11.79267082 -17.6875 9.5 C-12.31443032 5.54298563 -5.99541361 2.88544871 0 0 Z " fill="#CBCBCB" transform="translate(168,69)"/>
<path d="M0 0 C0.66 0 1.32 0 2 0 C7.20755116 14.65037781 10.83345726 28.59785073 13 44 C12.67 44 12.34 44 12 44 C11.67 50.6 11.34 57.2 11 64 C10.67 64 10.34 64 10 64 C9.97421875 62.75089844 9.9484375 61.50179687 9.921875 60.21484375 C9.36428543 41.08952151 6.09244297 22.85246156 0.953125 4.4453125 C0 1 0 1 0 0 Z " fill="#8F8F8F" transform="translate(479,180)"/>
<path d="M0 0 C3.05984274 4.5897641 5.24961227 9.59166959 7.625 14.5625 C8.140625 15.62919922 8.65625 16.69589844 9.1875 17.79492188 C9.67476562 18.81263672 10.16203125 19.83035156 10.6640625 20.87890625 C11.11217285 21.8129126 11.5602832 22.74691895 12.02197266 23.70922852 C13 26 13 26 13 28 C6.58420629 25.8614021 2.20152542 16.38397968 -0.921875 10.46875 C-2.32449477 7.66351047 -3.69062924 4.84980694 -5 2 C-4.34 2 -3.68 2 -3 2 C-3 2.66 -3 3.32 -3 4 C-2.34 3.67 -1.68 3.34 -1 3 C-0.67 2.01 -0.34 1.02 0 0 Z " fill="#B5B5B5" transform="translate(55,322)"/>
<path d="M0 0 C3.7130869 3.49887035 6.49732914 6.97449463 9.25 11.3125 C9.62697021 11.90627441 10.00394043 12.50004883 10.39233398 13.11181641 C14.86909843 20.24911614 18.94461189 27.61785144 23 35 C22.34 35.66 21.68 36.32 21 37 C20.14728516 35.54980469 20.14728516 35.54980469 19.27734375 34.0703125 C15.16968005 27.13076242 11.01248936 20.35024069 6.21484375 13.85546875 C5 12 5 12 5 10 C4.34 10 3.68 10 3 10 C2.34 8.35 1.68 6.7 1 5 C0.34 5 -0.32 5 -1 5 C-0.67 3.35 -0.34 1.7 0 0 Z " fill="#898989" transform="translate(446,115)"/>
<path d="M0 0 C0.66 0.33 1.32 0.66 2 1 C-1.96500397 5.36385052 -6.21922524 8.19535911 -11.3125 11.125 C-12.03373047 11.55425781 -12.75496094 11.98351562 -13.49804688 12.42578125 C-18.20324968 15.16872459 -22.85251015 17.22018995 -28 19 C-27.328125 16.1484375 -27.328125 16.1484375 -26 13 C-23.671875 11.6015625 -23.671875 11.6015625 -20.75 10.625 C-14.9139775 8.47711763 -9.82368022 5.74152852 -4.54589844 2.50244141 C-3.06263774 1.6125697 -1.53422193 0.79880976 0 0 Z " fill="#A8A8A8" transform="translate(390,425)"/>
<path d="M0 0 C-0.33 1.32 -0.66 2.64 -1 4 C-13.48519362 7.62870159 -13.48519362 7.62870159 -20 6 C-20 5.01 -20 4.02 -20 3 C-21.32 2.67 -22.64 2.34 -24 2 C-15.92437827 0.56205146 -8.2056037 -0.29599372 0 0 Z " fill="#CDCDCD" transform="translate(318,455)"/>
<path d="M0 0 C0 0.99 0 1.98 0 3 C-1.63844867 4.19149745 -3.28276627 5.37492876 -4.9296875 6.5546875 C-10.69704795 12.1511632 -11.00050798 17.29046545 -11.1953125 25.1328125 C-11.25518914 29.7995894 -11.19880557 34.45870635 -11.125 39.125 C-11.12305632 41.53645896 -11.1256161 43.947926 -11.1328125 46.359375 C-11.140606 52.24068029 -11.09228107 58.11945842 -11 64 C-11.33 64 -11.66 64 -12 64 C-12.17785722 56.5805251 -12.30022885 49.16160202 -12.38452148 41.74047852 C-12.41966882 39.21748308 -12.46739722 36.69462967 -12.52807617 34.17211914 C-12.6132391 30.54017067 -12.65274792 26.91011037 -12.68359375 23.27734375 C-12.71972275 22.15416245 -12.75585175 21.03098114 -12.79307556 19.87376404 C-12.79582775 14.35305516 -12.62545695 10.92668392 -8.64086914 6.88500977 C-7.45396514 5.89055071 -6.241377 4.92556635 -5 4 C-4.030625 3.195625 -3.06125 2.39125 -2.0625 1.5625 C-1.381875 1.046875 -0.70125 0.53125 0 0 Z " fill="#878787" transform="translate(101,122)"/>
<path d="M0 0 C0.66 0 1.32 0 2 0 C-0.16163513 6.93998648 -2.8936214 13.43117569 -6 20 C-7.32 20 -8.64 20 -10 20 C-9.31767508 16.46355988 -7.87284141 13.69731009 -6.125 10.5625 C-5.61195312 9.63566406 -5.09890625 8.70882812 -4.5703125 7.75390625 C-3.79300781 6.39072266 -3.79300781 6.39072266 -3 5 C-2.48179688 4.06027344 -1.96359375 3.12054688 -1.4296875 2.15234375 C-0.95789062 1.44207031 -0.48609375 0.73179687 0 0 Z " fill="#B4B4B4" transform="translate(61,160)"/>
<path d="M0 0 C1.65 0 3.3 0 5 0 C3.45129191 3.18727296 2.510194 4.74231881 -0.69921875 6.36328125 C-1.68535156 6.67652344 -2.67148437 6.98976563 -3.6875 7.3125 C-5.17830078 7.80169922 -5.17830078 7.80169922 -6.69921875 8.30078125 C-7.45847656 8.53152344 -8.21773438 8.76226562 -9 9 C-9.33 8.34 -9.66 7.68 -10 7 C-10.99 6.34 -11.98 5.68 -13 5 C-11.58603098 4.49242138 -10.16868271 3.99425075 -8.75 3.5 C-7.96109375 3.2215625 -7.1721875 2.943125 -6.359375 2.65625 C-4 2 -4 2 0 2 C0 1.34 0 0.68 0 0 Z " fill="#B0B0B0" transform="translate(359,440)"/>
<path d="M0 0 C0.66 0 1.32 0 2 0 C4.29612756 9.41002278 4.29612756 9.41002278 4 14 C3.67 14 3.34 14 3 14 C2.67 20.6 2.34 27.2 2 34 C1.67 34 1.34 34 1 34 C0.39534572 22.66112404 -0.18966094 11.35858317 0 0 Z " fill="#9A9A9A" transform="translate(488,210)"/>
<path d="M0 0 C0 0.66 0 1.32 0 2 C0.99 2.66 1.98 3.32 3 4 C-2.10334017 5.905247 -6.46342706 7.42589023 -12 7 C-10.63016497 3.83884224 -10.0109362 3.0072908 -7 1 C-4.605208 0.41590439 -2.46475374 0 0 0 Z " fill="#D0D0D0" transform="translate(179,66)"/>
<path d="M0 0 C0.66 0.66 1.32 1.32 2 2 C0.38113585 3.67262717 -1.2452729 5.33795537 -2.875 7 C-4.23238281 8.3921875 -4.23238281 8.3921875 -5.6171875 9.8125 C-8 12 -8 12 -10 12 C-10.0825 12.598125 -10.165 13.19625 -10.25 13.8125 C-11.20455872 16.5966296 -12.57132271 17.43311142 -15 19 C-14.40300869 15.66864109 -13.27987719 13.78724333 -11.0625 11.25 C-10.53785156 10.63640625 -10.01320313 10.0228125 -9.47265625 9.390625 C-8 8 -8 8 -6 8 C-5.7525 7.4225 -5.505 6.845 -5.25 6.25 C-3.83316683 3.6997003 -2.12372463 1.98214299 0 0 Z " fill="#B4B4B4" transform="translate(71,103)"/>
<path d="M0 0 C0.66 0.33 1.32 0.66 2 1 C-1.76843047 5.12172083 -5.88904305 8.63068221 -11 11 C-11.66 10.67 -12.32 10.34 -13 10 C-13 9.01 -13 8.02 -13 7 C-11.20856793 6.0204042 -9.41684696 5.0413367 -7.625 4.0625 C-6.62726563 3.51722656 -5.62953125 2.97195313 -4.6015625 2.41015625 C-3.07929654 1.5850241 -1.54871217 0.77435609 0 0 Z " fill="#7A7A7A" transform="translate(390,425)"/>
<path d="M0 0 C2 1 2 1 3 3 C2.32453125 3.39832031 1.6490625 3.79664062 0.953125 4.20703125 C0.06109375 4.73683594 -0.8309375 5.26664062 -1.75 5.8125 C-2.63171875 6.33457031 -3.5134375 6.85664062 -4.421875 7.39453125 C-6.99280766 8.93597921 -6.99280766 8.93597921 -9.203125 10.69921875 C-11 12 -11 12 -13 12 C-12.34 10.68 -11.68 9.36 -11 8 C-10.34 8 -9.68 8 -9 8 C-9 7.34 -9 6.68 -9 6 C-7.03125 4.4921875 -7.03125 4.4921875 -4.5 2.875 C-3.24703125 2.06675781 -3.24703125 2.06675781 -1.96875 1.2421875 C-0.99421875 0.62730469 -0.99421875 0.62730469 0 0 Z " fill="#818181" transform="translate(145,82)"/>
<path d="M0 0 C0.33 1.32 0.66 2.64 1 4 C-5.4 8.06153846 -5.4 8.06153846 -8.4375 7.75 C-8.953125 7.5025 -9.46875 7.255 -10 7 C-3.18421053 0 -3.18421053 0 0 0 Z " fill="#AEAEAE" transform="translate(156,76)"/>
<path d="M0 0 C0.22036864 3.85645121 -0.39644899 6.49223216 -2 10 C-2.66 9.01 -3.32 8.02 -4 7 C-5.32 8.32 -6.64 9.64 -8 11 C-7.57576756 9.53775201 -7.13509755 8.08026588 -6.6875 6.625 C-6.44386719 5.81289062 -6.20023438 5.00078125 -5.94921875 4.1640625 C-4.69142795 1.29650652 -3.21723189 0 0 0 Z " fill="#B9B9B9" transform="translate(54,179)"/>
<path d="M0 0 C2.64752004 2.57784846 4.94432065 4.91648098 7 8 C7 9.32 7 10.64 7 12 C6.34 12 5.68 12 5 12 C5 11.34 5 10.68 5 10 C4.34 10 3.68 10 3 10 C2.34 8.35 1.68 6.7 1 5 C0.34 5 -0.32 5 -1 5 C-0.67 3.35 -0.34 1.7 0 0 Z " fill="#A0A0A0" transform="translate(446,115)"/>
<path d="M0 0 C1.76227952 2.64341928 3.19871008 5.23077235 4.625 8.0625 C5.07101563 8.94035156 5.51703125 9.81820313 5.9765625 10.72265625 C7 13 7 13 7 15 C3.11736059 13.70578686 2.11391877 12.49890004 0 9 C-0.33007108 5.96842406 -0.23812855 3.03613897 0 0 Z " fill="#777777" transform="translate(61,335)"/>
<path d="M0 0 C1.98 0 3.96 0 6 0 C5.4375 1.9375 5.4375 1.9375 4 4 C0.375 4.75 0.375 4.75 -3 5 C-3 4.01 -3 3.02 -3 2 C-2.01 2 -1.02 2 0 2 C0 1.34 0 0.68 0 0 Z " fill="#E4E4E4" transform="translate(344,446)"/>
<path d="M0 0 C0 3 0 3 -2.1875 5.48046875 C-3.115625 6.37378906 -4.04375 7.26710937 -5 8.1875 C-5.928125 9.08855469 -6.85625 9.98960937 -7.8125 10.91796875 C-8.534375 11.60503906 -9.25625 12.29210937 -10 13 C-10.33 12.01 -10.66 11.02 -11 10 C-5.555 5.05 -5.555 5.05 0 0 Z " fill="#C1C0C1" transform="translate(101,122)"/>
<path d="M0 0 C2.60045875 2.3024119 3.84739183 4.49896677 5.1875 7.6875 C5.53167969 8.49574219 5.87585938 9.30398437 6.23046875 10.13671875 C6.48441406 10.75160156 6.73835938 11.36648437 7 12 C6.01 12 5.02 12 4 12 C3.13624104 10.38007835 2.28424146 8.75388139 1.4375 7.125 C0.72400391 5.76761719 0.72400391 5.76761719 -0.00390625 4.3828125 C-0.33261719 3.59648437 -0.66132813 2.81015625 -1 2 C-0.67 1.34 -0.34 0.68 0 0 Z " fill="#515151" transform="translate(462,139)"/>
<path d="M0 0 C0.66 0 1.32 0 2 0 C2.99 3.3 3.98 6.6 5 10 C4.01 10 3.02 10 2 10 C1.34 6.7 0.68 3.4 0 0 Z " fill="#515151" transform="translate(479,180)"/>
<path d="M0 0 C1.65 0 3.3 0 5 0 C4.67 0.99 4.34 1.98 4 3 C2.02 3.33 0.04 3.66 -2 4 C-1.34 2.68 -0.68 1.36 0 0 Z " fill="#BFBFBF" transform="translate(373,434)"/>
<path d="M0 0 C0.66 0.33 1.32 0.66 2 1 C1.38511719 1.59748047 1.38511719 1.59748047 0.7578125 2.20703125 C0.21898437 2.73683594 -0.31984375 3.26664062 -0.875 3.8125 C-1.40867187 4.33457031 -1.94234375 4.85664063 -2.4921875 5.39453125 C-4.20776561 7.13259904 -4.20776561 7.13259904 -6 10 C-6.375 7.8125 -6.375 7.8125 -6 5 C-4.16038352 3.00977164 -2.20813852 1.61010101 0 0 Z " fill="#919191" transform="translate(475,361)"/>
<path d="M0 0 C1.125 1.75 1.125 1.75 2 4 C1.125 6.25 1.125 6.25 0 8 C-0.99 8 -1.98 8 -3 8 C-2.37240135 5.07120629 -1.41377341 2.63904371 0 0 Z " fill="#888888" transform="translate(54,172)"/>
<path d="M0 0 C0.66 0 1.32 0 2 0 C1.01 2.97 0.02 5.94 -1 9 C-1.66 7.68 -2.32 6.36 -3 5 C-1.75 2.25 -1.75 2.25 0 0 Z " fill="#686868" transform="translate(61,160)"/>
<path d="M0 0 C1.65 0 3.3 0 5 0 C4.34 1.32 3.68 2.64 3 4 C1.35 3.67 -0.3 3.34 -2 3 C-1.34 2.67 -0.68 2.34 0 2 C0 1.34 0 0.68 0 0 Z " fill="#DADADA" transform="translate(359,440)"/>
<path d="M0 0 C0.99 0.33 1.98 0.66 3 1 C1.37660195 2.70884005 -0.29319053 4.37446717 -2 6 C-2.66 6 -3.32 6 -4 6 C-3.34 4.68 -2.68 3.36 -2 2 C-1.34 2 -0.68 2 0 2 C0 1.34 0 0.68 0 0 Z " fill="#5A5A5A" transform="translate(136,88)"/>
<path d="M0 0 C0.33 1.32 0.66 2.64 1 4 C-2 5 -2 5 -4.1875 4.0625 C-4.785625 3.711875 -5.38375 3.36125 -6 3 C-2.25 0 -2.25 0 0 0 Z " fill="#8D8D8D" transform="translate(156,76)"/>
<path d="M0 0 C0 3 0 3 -1.25 4.625 C-3.17415516 6.1368362 -4.60989418 6.58791279 -7 7 C-5.66667905 3.00003714 -3.5042173 2.16217663 0 0 Z " fill="#9C9C9C" transform="translate(310,148)"/>
</svg>
